<?xml version="1.0" encoding="UTF-8"?>
<svg id="Layer_1" data-name="Layer 1" xmlns="http://www.w3.org/2000/svg" xmlns:xlink="http://www.w3.org/1999/xlink" viewBox="0 0 231.35 329.58">
  <defs>
    <style>
      .cls-1 {
        fill: #010101;
      }

      .cls-2 {
        fill: #fbc311;
      }

      .cls-3 {
        fill: #e21f26;
      }

      .cls-4 {
        fill: url(#Degradado_sin_nombre_52);
      }

      .cls-5 {
        fill: url(#Degradado_sin_nombre_57);
      }

      .cls-6 {
        fill: url(#Degradado_sin_nombre_53);
      }

      .cls-7 {
        fill: url(#Degradado_sin_nombre_58);
      }

      .cls-8 {
        fill: url(#Degradado_sin_nombre_59);
      }

      .cls-9 {
        fill: url(#Degradado_sin_nombre_56);
      }

      .cls-10 {
        fill: url(#Degradado_sin_nombre_49);
      }

      .cls-11 {
        fill: url(#Degradado_sin_nombre_47);
      }

      .cls-12 {
        fill: url(#Degradado_sin_nombre_51);
      }

      .cls-13 {
        fill: url(#Degradado_sin_nombre_50);
      }

      .cls-14 {
        fill: url(#Degradado_sin_nombre_12);
      }

      .cls-15 {
        fill: url(#Degradado_sin_nombre_51-3);
      }

      .cls-16 {
        fill: url(#Degradado_sin_nombre_51-2);
      }

      .cls-17 {
        fill: url(#Degradado_sin_nombre_59-2);
      }

      .cls-18 {
        fill: url(#Degradado_sin_nombre_56-2);
      }
    </style>
    <linearGradient id="Degradado_sin_nombre_59" data-name="Degradado sin nombre 59" x1="286.01" y1="405.09" x2="286.01" y2="278.04" gradientTransform="translate(362.49 -66.81) rotate(-177.44) scale(1 -1)" gradientUnits="userSpaceOnUse">
      <stop offset=".09" stop-color="#010101"/>
      <stop offset=".19" stop-color="#fff"/>
      <stop offset=".31" stop-color="#fff"/>
      <stop offset=".34" stop-color="#e8e8e8"/>
      <stop offset=".42" stop-color="#acacac"/>
      <stop offset=".52" stop-color="#4f4f4f"/>
      <stop offset=".61" stop-color="#010101"/>
    </linearGradient>
    <linearGradient id="Degradado_sin_nombre_59-2" data-name="Degradado sin nombre 59" x1="134.8" y1="405.16" x2="134.8" y2="278.11" gradientTransform="translate(47.99 -80.96) rotate(2.56)" xlink:href="#Degradado_sin_nombre_59"/>
    <radialGradient id="Degradado_sin_nombre_58" data-name="Degradado sin nombre 58" cx="865.57" cy="349.22" fx="865.57" fy="349.22" r="53.09" gradientTransform="translate(-900.98 -257.1) rotate(2.56) scale(1.2 1.14)" gradientUnits="userSpaceOnUse">
      <stop offset=".86" stop-color="#fbc311"/>
      <stop offset=".95" stop-color="#010101"/>
    </radialGradient>
    <radialGradient id="Degradado_sin_nombre_57" data-name="Degradado sin nombre 57" cx="872.06" cy="257.11" fx="872.06" fy="257.11" r="79.27" gradientTransform="translate(-900.98 -257.1) rotate(2.56) scale(1.2 1.14)" gradientUnits="userSpaceOnUse">
      <stop offset=".84" stop-color="#fbc311"/>
      <stop offset=".91" stop-color="#010101"/>
    </radialGradient>
    <linearGradient id="Degradado_sin_nombre_56" data-name="Degradado sin nombre 56" x1="143.68" y1="196.82" x2="144.78" y2="139.6" gradientTransform="translate(47.99 -80.96) rotate(2.56)" gradientUnits="userSpaceOnUse">
      <stop offset=".31" stop-color="#010101"/>
      <stop offset=".33" stop-color="#2c2c2c"/>
      <stop offset=".37" stop-color="#6b6b6b"/>
      <stop offset=".4" stop-color="#a0a0a0"/>
      <stop offset=".43" stop-color="#c9c9c9"/>
      <stop offset=".45" stop-color="#e6e6e6"/>
      <stop offset=".47" stop-color="#f8f8f8"/>
      <stop offset=".49" stop-color="#fff"/>
    </linearGradient>
    <linearGradient id="Degradado_sin_nombre_51" data-name="Degradado sin nombre 51" x1="163.75" y1="197.19" x2="164.84" y2="139.96" gradientTransform="translate(47.99 -80.96) rotate(2.56)" gradientUnits="userSpaceOnUse">
      <stop offset=".31" stop-color="#010101"/>
      <stop offset=".32" stop-color="#0f0203"/>
      <stop offset=".36" stop-color="#4e0b0d"/>
      <stop offset=".39" stop-color="#831216"/>
      <stop offset=".42" stop-color="#ac171d"/>
      <stop offset=".45" stop-color="#c91b22"/>
      <stop offset=".47" stop-color="#db1e24"/>
      <stop offset=".49" stop-color="#e21f26"/>
    </linearGradient>
    <linearGradient id="Degradado_sin_nombre_56-2" data-name="Degradado sin nombre 56" x1="18.72" y1="194.53" x2="19.81" y2="137.31" xlink:href="#Degradado_sin_nombre_56"/>
    <linearGradient id="Degradado_sin_nombre_51-2" data-name="Degradado sin nombre 51" x1="-.88" y1="194.17" x2=".21" y2="136.96" xlink:href="#Degradado_sin_nombre_51"/>
    <linearGradient id="Degradado_sin_nombre_53" data-name="Degradado sin nombre 53" x1="81.8" y1="274.05" x2="187.49" y2="274.05" gradientTransform="translate(47.99 -80.96) rotate(2.56)" gradientUnits="userSpaceOnUse">
      <stop offset=".44" stop-color="#fff"/>
      <stop offset=".5" stop-color="#fafafa"/>
      <stop offset=".56" stop-color="#eee"/>
      <stop offset=".63" stop-color="#d9d9d9"/>
      <stop offset=".7" stop-color="#bcbcbc"/>
      <stop offset=".77" stop-color="#969696"/>
      <stop offset=".84" stop-color="#686868"/>
      <stop offset=".9" stop-color="#323232"/>
      <stop offset=".96" stop-color="#010101"/>
    </linearGradient>
    <linearGradient id="Degradado_sin_nombre_52" data-name="Degradado sin nombre 52" x1="-23.88" y1="274.08" x2="81.8" y2="274.08" gradientTransform="translate(47.99 -80.96) rotate(2.56)" gradientUnits="userSpaceOnUse">
      <stop offset=".82" stop-color="#fff"/>
      <stop offset=".85" stop-color="#fcfcfc"/>
      <stop offset=".87" stop-color="#f4f4f4"/>
      <stop offset=".88" stop-color="#e5e5e5"/>
      <stop offset=".9" stop-color="#d1d1d1"/>
      <stop offset=".91" stop-color="#b7b7b7"/>
      <stop offset=".92" stop-color="#979797"/>
      <stop offset=".94" stop-color="#707070"/>
      <stop offset=".95" stop-color="#444"/>
      <stop offset=".96" stop-color="#131313"/>
      <stop offset=".96" stop-color="#010101"/>
    </linearGradient>
    <linearGradient id="Degradado_sin_nombre_51-3" data-name="Degradado sin nombre 51" x1="81.68" y1="195.7" x2="82.78" y2="138.45" xlink:href="#Degradado_sin_nombre_51"/>
    <radialGradient id="Degradado_sin_nombre_50" data-name="Degradado sin nombre 50" cx="81.8" cy="106.95" fx="81.8" fy="106.95" r="26.15" gradientTransform="translate(47.99 -80.96) rotate(2.56)" gradientUnits="userSpaceOnUse">
      <stop offset=".71" stop-color="#010101"/>
      <stop offset=".73" stop-color="#2c2c2c"/>
      <stop offset=".76" stop-color="#6b6b6b"/>
      <stop offset=".79" stop-color="#a0a0a0"/>
      <stop offset=".82" stop-color="#c9c9c9"/>
      <stop offset=".85" stop-color="#e6e6e6"/>
      <stop offset=".87" stop-color="#f8f8f8"/>
      <stop offset=".89" stop-color="#fff"/>
    </radialGradient>
    <radialGradient id="Degradado_sin_nombre_49" data-name="Degradado sin nombre 49" cx="866.93" cy="229.52" fx="866.93" fy="229.52" r="22.2" gradientTransform="translate(-900.98 -257.1) rotate(2.56) scale(1.2 1.14)" gradientUnits="userSpaceOnUse">
      <stop offset=".63" stop-color="#010101"/>
      <stop offset=".66" stop-color="#2c2c2c"/>
      <stop offset=".7" stop-color="#6b6b6b"/>
      <stop offset=".75" stop-color="#a0a0a0"/>
      <stop offset=".79" stop-color="#c9c9c9"/>
      <stop offset=".83" stop-color="#e6e6e6"/>
      <stop offset=".86" stop-color="#f8f8f8"/>
      <stop offset=".88" stop-color="#fff"/>
    </radialGradient>
    <radialGradient id="Degradado_sin_nombre_47" data-name="Degradado sin nombre 47" cx="1006.33" cy="5622.5" fx="1006.33" fy="5622.5" r="23.66" gradientTransform="translate(-903.92 -3921.91) rotate(2.56) scale(1.2 .69)" gradientUnits="userSpaceOnUse">
      <stop offset=".44" stop-color="#fbc311"/>
      <stop offset=".47" stop-color="#f5be10"/>
      <stop offset=".52" stop-color="#e5b20f"/>
      <stop offset=".57" stop-color="#cb9e0d"/>
      <stop offset=".63" stop-color="#a7810b"/>
      <stop offset=".69" stop-color="#785d08"/>
      <stop offset=".75" stop-color="#403205"/>
      <stop offset=".81" stop-color="#010101"/>
    </radialGradient>
    <radialGradient id="Degradado_sin_nombre_12" data-name="Degradado sin nombre 12" cx="64.65" cy="117.72" fx="64.65" fy="117.72" r="9.08" gradientTransform="translate(47.99 -80.96) rotate(2.56)" gradientUnits="userSpaceOnUse">
      <stop offset=".62" stop-color="#010101"/>
      <stop offset=".65" stop-color="#2c2c2c"/>
      <stop offset=".69" stop-color="#6b6b6b"/>
      <stop offset=".72" stop-color="#a0a0a0"/>
      <stop offset=".76" stop-color="#c9c9c9"/>
      <stop offset=".79" stop-color="#e6e6e6"/>
      <stop offset=".82" stop-color="#f8f8f8"/>
      <stop offset=".84" stop-color="#fff"/>
    </radialGradient>
  </defs>
  <path class="cls-3" d="m227.66,255.73c1.49-6.62,2.76-15.57,2.17-26.14-.71-12.7-3.85-22.99-6.63-30.02-4.4,6.37-10,13.5-17.04,20.83-5.98,6.21-11.88,11.4-17.3,15.68,4.9.65,11.92,2.12,19.6,5.75,9.32,4.4,15.59,10.07,19.2,13.9Z"/>
  <path class="cls-3" d="m2.41,245.65c-.89-6.72-1.36-15.76.17-26.23,1.84-12.58,5.88-22.55,9.29-29.31,3.82,6.73,8.75,14.34,15.11,22.26,5.4,6.72,10.81,12.42,15.83,17.16-4.93.21-12.06,1.05-20.04,3.98-9.68,3.55-16.42,8.64-20.37,12.13Z"/>
  <path class="cls-8" d="m11.9,195.82c.62,11.58,3.84,38.54,24.59,62.81,7.93,9.28,25.62,29.97,53.53,32.14,9.65.75,17.76-.93,23.23-2.55-.55,13.08-1.09,26.16-1.64,39.24-16.26-11.41-32.52-22.81-48.77-34.22-6.47-3.32-15.46-8.81-24.34-17.53-3.71-3.64-11.76-12.13-18.04-24.45-11.77-23.1-10.02-45.4-8.55-55.44Z"/>
  <path class="cls-17" d="m222.66,205.25c-1.66,11.48-7.27,38.04-30.1,60.36-8.73,8.54-28.2,27.56-56.19,27.23-9.68-.11-17.6-2.51-22.91-4.61-.62,13.08-1.25,26.15-1.87,39.23,17.21-9.91,34.42-19.82,51.64-29.72,6.74-2.73,16.19-7.39,25.81-15.29,4.02-3.29,12.8-11.03,20.15-22.74,13.79-21.96,14.04-44.32,13.47-54.46Z"/>
  <path class="cls-3" d="m161.68,299.44c-3.7-.26-7.77-.89-12.04-2.12-20.09-5.82-31.25-21.21-35.45-27.82-2.76,4.23-12.03,17.2-29.76,22.32-8.09,2.34-15.29,2.28-20.17,1.8,2.27,2.18,5.73,5.24,10.37,8.4,3.88,2.64,5.83,3.96,8.28,4.54,6.37,1.5,12.22-1.79,17.04-4.51,3.29-1.85,8.52-5.36,13.31-11.59,1.47,2.17,3.79,5.19,7.19,8.27,3.45,3.13,9.27,8.39,16.94,9.68,12.52,2.1,22.88-7.6,24.29-8.96Z"/>
  <path class="cls-7" d="m171.02,179.05c2.05,6.23,6.2,22.75-2.58,40.24-8.4,16.73-23.3,23.72-27.09,25.37-16.88,7.35-32.14,4.25-36.68,3.26-4.61-1.01-21.51-4.96-33.67-20.52-11.47-14.68-11.35-30.25-11.14-34.8,5.71.26,11.42.51,17.13.77.03,1.98.74,23.03,17.98,33.63,19.01,11.68,47.39,4.07,57.84-14.51,5.97-10.63,5.81-24.38-.64-35.54-7.09-12.26-19.06-16.68-22.22-17.75.56-6.07,1.11-12.15,1.67-18.22,3.4,1.17,30.54,11.04,39.41,38.07Z"/>
  <path class="cls-5" d="m115.21,140.35c-5.07-.61-12.55-2.07-20.71-5.93-4.44-2.1-18.82-9.5-28.09-25.46-15.86-27.31-2.55-55.19-1.87-56.56,2.25-4.5,11.56-22.43,33.78-30.26,16.96-5.98,31.92-2.73,37.39-1.26.7-1.41,2.57-5.67,1.26-10.88-.74-2.96-2.22-5.08-3.23-6.29-6.86-1.24-26.17-3.83-47.22,5.52-23.64,10.5-33.83,29.12-36.62,34.41-12.88,24.42-10.54,53.09,2.15,74.31,7.89,13.19,18.49,21.35,24.65,25.42,13.73,9.05,27.03,12,34.23,13.1,1.42-5.37,2.84-10.74,4.26-16.11Z"/>
  <path class="cls-1" d="m114.51,251.01c-32.24-1.44-57.35-27.67-55.97-58.46.03-.73.65-1.29,1.38-1.26l17.13.77c.73.03,1.29.65,1.26,1.38-.91,20.33,15.72,37.65,37.06,38.6,21.34.96,39.45-14.81,40.36-35.14.91-20.33-15.72-37.65-37.06-38.6-.02,0-.05,0-.07,0-45.41-2.33-80.68-39.36-78.74-82.79C41.8,31.87,80.56-1.96,126.25.09c.73.03,1.29.65,1.26,1.38l-.73,16.34c-.03.73-.65,1.29-1.38,1.26-34.79-1.56-64.31,24.15-65.79,57.31-.25,5.49.29,10.96,1.58,16.27,4.61,18.88,18.58,34.62,37.37,42.1,5.71,2.28,11.75,3.74,17.94,4.34h0c1.16.11,2.34.2,3.51.25.03,0,.06,0,.09,0,31.95,1.74,56.74,27.83,55.37,58.43-1.38,30.79-28.73,54.67-60.97,53.23Zm-53.38-57.03c-.55,28.77,23.17,53.04,53.5,54.39,30.79,1.38,56.91-21.37,58.22-50.71,1.31-29.34-22.67-54.33-53.46-55.71-.03,0-.06,0-.08,0-1.02-.05-2.05-.13-3.06-.23-6.44-.63-12.72-2.15-18.66-4.52-19.58-7.8-34.14-24.23-38.95-43.93-1.35-5.55-1.91-11.27-1.65-17.01,1.53-34.19,31.56-60.8,67.22-59.88l.61-13.71c-43.66-1.28-80.46,31.19-82.33,72.94-1.89,42.17,32.57,78.09,76.8,80.07.04,0,.07,0,.11,0,22.5,1.33,39.92,19.74,38.96,41.32-.97,21.78-20.32,38.67-43.11,37.65-22.34-1-39.83-18.83-39.61-40.04l-14.5-.65Z"/>
  <g>
    <path class="cls-1" d="m64.12,134.56c-.28-.01-.56-.11-.79-.31-.56-.47-.63-1.3-.16-1.86.14-.16.28-.32.42-.48,5.46-6.02,14.5-7.73,21.97-4.15.66.31.93,1.1.62,1.76-.31.66-1.1.94-1.76.62-6.43-3.08-14.19-1.62-18.88,3.55-.12.14-.24.27-.35.41-.27.33-.67.49-1.07.47Z"/>
    <path class="cls-1" d="m52.01,119.26c-.39-.02-.77-.21-1.01-.55-.42-.59-.29-1.41.3-1.84,6.81-4.88,16.45-4.54,22.92.81.56.46.64,1.29.18,1.86-.46.56-1.29.64-1.86.18-5.57-4.6-13.85-4.89-19.71-.7-.25.18-.54.26-.83.25Z"/>
  </g>
  <path class="cls-9" d="m194.15,85.22c-2.68-.81-5.64-1.58-8.88-2.24-3.9-.79-7.52-1.27-10.78-1.55.92,3.2,1.78,7.37,1.92,12.27.19,6.6-.99,12.07-2.14,15.86,2.93.11,6.15.11,9.62-.08,3.43-.19,6.6-.54,9.46-.97.93-3.29,1.81-7.69,1.85-12.91.03-4.04-.45-7.55-1.05-10.38Z"/>
  <path class="cls-12" d="m195.81,85.34c4-.26,7.22.28,9.4.82,3.72.93,6.81,1.7,8.41,4.25.92,1.47.82,3.42.63,7.32-.21,4.24-.35,6.39-1.91,7.89-1.18,1.13-2.62,1.44-5.69,1.8-3.17.37-7.5.74-12.77.76.74-1.94,1.43-4.17,1.93-6.66,1.3-6.52.78-12.18,0-16.18Z"/>
  <path class="cls-18" d="m51.02,78.82c2.74-.57,5.76-1.07,9.04-1.44,3.95-.44,7.6-.59,10.88-.59-1.2,3.1-2.43,7.18-3.01,12.05-.78,6.56-.1,12.11.72,15.99-2.93-.15-6.13-.44-9.57-.94-3.4-.5-6.52-1.13-9.34-1.81-.64-3.36-1.12-7.82-.69-13.02.33-4.02,1.12-7.48,1.97-10.24Z"/>
  <path class="cls-16" d="m49.36,78.78c-3.96-.62-7.22-.37-9.43-.02-3.79.59-6.94,1.08-8.76,3.48-1.05,1.38-1.12,3.33-1.28,7.24-.17,4.24-.22,6.4,1.19,8.03,1.07,1.23,2.48,1.66,5.51,2.3,3.13.65,7.41,1.41,12.65,1.9-.57-2-1.05-4.28-1.32-6.8-.72-6.61.31-12.2,1.44-16.12Z"/>
  <path class="cls-1" d="m228.31,257.24c-.35-.02-.68-.17-.92-.44-5.01-5.61-11.06-10.11-17.97-13.38-6.69-3.16-13.86-5.01-21.31-5.49-.54-.04-1.01-.4-1.17-.92-.16-.52,0-1.08.43-1.42,7.18-5.79,13.89-12.2,19.94-19.05h0c5.47-6.2,10.49-12.86,14.9-19.8.27-.43.77-.66,1.26-.6.5.06.93.39,1.09.87,3.29,9.27,5.4,18.91,6.3,28.64.93,10.17.53,20.43-1.19,30.5-.09.5-.45.9-.93,1.04-.14.04-.28.06-.42.05Zm-36.8-21.65c6.63.77,13.01,2.6,19.03,5.45,6.39,3.02,12.08,7.06,16.95,12.02,1.33-8.99,1.58-18.12.74-27.17-.79-8.63-2.57-17.18-5.29-25.45-4.12,6.23-8.71,12.22-13.67,17.84h0c-5.44,6.17-11.41,11.98-17.77,17.31Zm16.78-18.18h.01s-.01,0-.01,0Z"/>
  <path class="cls-1" d="m1.63,247.1c-.14,0-.28-.04-.42-.09-.47-.18-.8-.62-.84-1.12-.82-10.18-.3-20.44,1.53-30.48,1.76-9.62,4.73-19.03,8.83-27.96.21-.46.66-.76,1.17-.77.51,0,.97.26,1.2.71,3.78,7.3,8.18,14.38,13.08,21.05,5.41,7.37,11.52,14.35,18.16,20.76.39.38.51.96.3,1.46-.21.5-.71.82-1.25.81-7.46-.19-14.77,1.01-21.72,3.57-7.07,2.6-13.67,6.65-19.09,11.72-.26.25-.61.37-.96.35Zm10.41-56.09c-3.45,8-5.98,16.35-7.54,24.88-1.64,8.94-2.2,18.06-1.68,27.13,5.25-4.46,11.41-8.05,17.95-10.46,6.25-2.3,12.78-3.55,19.44-3.73-5.86-5.88-11.28-12.2-16.15-18.83h0c-4.44-6.04-8.47-12.42-12.02-18.99Z"/>
  <path class="cls-1" d="m97.79,154.62c-.07,0-.15-.01-.22-.03-.71-.15-1.16-.85-1.01-1.57,1.81-8.45,9.68-14.33,18.7-13.99.29.02.57.04.84.06.72.07,1.26.71,1.19,1.44-.07.72-.71,1.29-1.44,1.19-.24-.02-.47-.04-.71-.05-7.72-.29-14.46,4.72-16,11.91-.14.64-.71,1.07-1.35,1.04Z"/>
  <path class="cls-1" d="m172.83,208.42s0,0-.01,0c-.73-.04-1.29-.66-1.25-1.38.21-3.99-1.23-7.83-4.04-10.81-2.83-3-6.72-4.77-10.94-4.99-.73-.04-1.29-.66-1.25-1.38.04-.72.65-1.28,1.37-1.25,0,0,0,0,0,0,4.9.25,9.42,2.32,12.72,5.81,3.32,3.51,5,8.04,4.76,12.76-.04.72-.65,1.28-1.37,1.25Z"/>
  <path class="cls-1" d="m160.78,231.72c-.22,0-.43-.07-.63-.2-.62-.38-.81-1.2-.43-1.81,2.08-3.37,2.7-7.33,1.72-11.14-1.02-3.97-3.61-7.31-7.31-9.4-.63-.36-.86-1.16-.5-1.8.36-.63,1.17-.86,1.8-.5,4.33,2.45,7.37,6.37,8.56,11.04,1.16,4.51.44,9.19-2.03,13.18-.26.42-.72.64-1.18.62Z"/>
  <path class="cls-1" d="m138.77,247c-.43-.02-.84-.25-1.08-.65-.37-.63-.16-1.44.47-1.8,3.61-2.13,6.12-5.48,7.04-9.43.9-3.85.2-7.82-1.99-11.18-.4-.61-.22-1.43.39-1.82.61-.4,1.43-.22,1.82.39,2.58,3.97,3.42,8.67,2.35,13.22-1.09,4.66-4.03,8.6-8.27,11.1-.23.13-.48.19-.73.18Z"/>
  <g>
    <path class="cls-1" d="m134.91,162.47c-.27-.01-.54-.11-.77-.29-.57-.46-.65-1.29-.19-1.85,6.19-7.65,17.77-9.04,25.8-3.1.58.43.71,1.26.28,1.84-.43.58-1.25.71-1.84.28-6.91-5.11-16.87-3.92-22.19,2.64-.27.34-.68.51-1.08.49Z"/>
    <path class="cls-1" d="m172.15,182.4c-.47-.02-.91-.29-1.13-.74-3.65-7.56-13.06-10.9-20.99-7.44-.66.29-1.44-.01-1.74-.68-.29-.67.01-1.44.68-1.74,9.21-4.01,20.16-.11,24.41,8.71.32.66.04,1.44-.61,1.76-.2.1-.42.14-.63.13Z"/>
  </g>
  <g>
    <path class="cls-1" d="m92.05,243.5c-2.17-.1-4.36-.57-6.47-1.45-.67-.28-.99-1.05-.71-1.72.28-.67,1.05-.99,1.72-.71,8.01,3.34,17.33-.14,20.78-7.75.3-.66,1.08-.96,1.75-.66.66.3.96,1.08.66,1.75-3.12,6.87-10.32,10.87-17.72,10.54Z"/>
    <path class="cls-1" d="m79.9,229.21c-5.09-.23-10.07-2.46-13.52-6.54-.47-.56-.4-1.39.16-1.86.55-.47,1.39-.4,1.86.15,5.49,6.49,15.47,7.53,22.25,2.31.58-.44,1.4-.33,1.85.24.44.58.34,1.4-.24,1.85-3.62,2.78-8.02,4.03-12.35,3.84Z"/>
    <path class="cls-1" d="m75.98,211.21c-8.34-.37-15.74-6.14-17.44-14.21-.15-.71.31-1.41,1.02-1.56.72-.15,1.41.31,1.56,1.02,1.68,7.98,9.97,13.32,18.44,11.91.72-.11,1.4.37,1.52,1.08.12.72-.37,1.4-1.08,1.52-1.35.22-2.69.3-4.01.24Z"/>
  </g>
  <path class="cls-6" d="m223,202.11s-20.99,55.51-50.06,63.38c-24.56,6.65-40.58-3.03-40.23-21.93.38-21.16,5.83-142.9,5.83-142.9,0,0-3.25,10.35-17.23,9.73,0,0-5.91,132.13-7.06,157.77,2.49,4.51,6.83,11,14.03,17.13,5.08,4.32,10.09,7.19,14.05,9.07,9.78-2.74,39.23-12.3,60.44-40.65,15.44-20.64,19.14-41.38,20.22-51.58Z"/>
  <path class="cls-4" d="m11.85,192.66s15.95,57.16,44.19,67.6c23.87,8.82,40.69.6,42.03-18.25,1.51-21.11,6.95-142.85,6.95-142.85,0,0,2.31,10.6,16.29,11.23,0,0-5.91,132.13-7.06,157.77-2.85,3.75-6.84,8.27-12.25,12.73-6.42,5.29-12.69,8.72-17.57,10.94-10.27-3.67-27-11.21-42.13-26.55-28-28.38-30.2-62.83-30.46-72.62Z"/>
  <path class="cls-1" d="m111.51,329.58c-.2,0-.4-.06-.58-.16-.44-.24-.7-.71-.68-1.21l10.98-245.3c.02-.4.21-.76.53-1,.32-.24.73-.32,1.11-.22l9.76,2.5c.38.1.69.36.86.7.11-.09.16-.18.19-.24.04-.07.08-.15.11-.23-.18-.03-.35-.1-.51-.2-.39-.26-.61-.7-.59-1.16.09-1.91.71-2.86,1.87-2.81.48.02.86.24,1.15.58l3.16-1.53c.42-.2.91-.17,1.3.09.39.26.61.7.59,1.16l-5.23,116.77c-.22,4.85-.59,9.84-.94,14.66-1.47,19.77-2.85,38.44,5.66,48.02,3.71,4.17,9.07,6.36,16.39,6.69,44.65,2,65.21-68.89,65.41-69.6.17-.61.79-.98,1.37-.96.63.05,1.13.54,1.2,1.16,6.17,52.91-28.93,88.79-63.85,104.74-25.37,11.59-48.25,27.16-48.47,27.32-.24.16-.52.24-.8.23Zm12.28-244.94l-10.79,241.08c6.34-4.17,25.66-16.48,46.69-26.09,32.64-14.91,65.45-47.63,62.87-95.63-2.45,6.92-7.12,18.66-14.15,30.18-14.54,23.86-32.48,36-51.89,35.14-8.07-.36-14.04-2.84-18.24-7.57-9.25-10.42-7.82-29.63-6.31-49.97.36-4.8.72-9.77.94-14.58l5.13-114.57-1.49.72c0,.18,0,.35,0,.51-.05,1.07-.39,2-1,2.68-.54.61-1.54,1.32-3.29,1.24-.7-.03-1.25-.6-1.26-1.3l-7.2-1.84Z"/>
  <path class="cls-1" d="m111.51,329.58c-.28-.01-.55-.11-.78-.3-.21-.18-21.61-17.73-45.84-31.54C31.54,278.75-.22,239.87,10.65,187.72c.13-.62.67-1.05,1.3-1.05.67.04,1.17.46,1.28,1.07.14.73,14.28,73.17,58.93,75.17,7.32.33,12.86-1.37,16.92-5.2,9.33-8.78,9.62-27.51,9.92-47.33.07-4.84.15-9.83.37-14.69l5.18-115.85c.02-.42.24-.8.59-1.04.35-.23.79-.28,1.18-.14l6.48,2.36c-.01-.11-.02-.21-.02-.3.03-.73.66-1.31,1.38-1.28.72.03,1.15.49,1.3,1.37.17.33.73,1.02,2.47,1.1.19,0,.37.06.53.14l2.92,1.46c.25-.35.67-.57,1.13-.55.73.03,1.29.65,1.26,1.38l-10.92,243.97c-.02.5-.33.94-.78,1.15-.19.08-.39.12-.59.11ZM12.12,194.59c-6.86,47.58,22.9,83.1,54.08,100.86,20.09,11.44,38.23,25.44,44.17,30.16l10.71-239.31-3.52-1.76c-1.01-.08-1.81-.32-2.42-.63-.05.05-.11.1-.17.14-.35.23-.78.29-1.18.14l-6.66-2.43-5.1,114.05c-.22,4.81-.29,9.79-.37,14.61-.31,20.39-.61,39.66-10.75,49.21-4.61,4.34-10.77,6.27-18.85,5.91-19.41-.87-36.2-14.57-48.55-39.63-5.97-12.11-9.58-24.22-11.39-31.32Z"/>
  <path class="cls-15" d="m175.21,81.54c-14.99-2.24-31.59-4.04-49.6-4.94-20.19-1.01-38.77-.74-55.4.24-.42,9.49-.85,18.98-1.27,28.47,15.57,2.08,32.57,3.72,50.86,4.59,19.47.92,37.59.83,54.14.11.7-3.89,1.27-8.26,1.54-13.05.32-5.71.14-10.89-.26-15.42Z"/>
  <path class="cls-1" d="m121.26,111.7c-38.38-1.72-79.52-9.22-87.38-10.71-3.5-.66-5.93-3.64-5.78-7.08l.42-9.38c.15-3.44,2.84-6.18,6.39-6.53,7.96-.78,49.61-4.58,87.99-2.86,38.38,1.72,79.52,9.22,87.38,10.71h0c3.5.66,5.93,3.64,5.78,7.08l-.42,9.38c-.15,3.44-2.84,6.18-6.39,6.53-7.96.78-49.61,4.58-87.99,2.86Zm1.52-33.92c-38.2-1.71-79.68,2.08-87.61,2.85-2.23.22-3.92,1.91-4.01,4.02l-.42,9.38c-.09,2.11,1.43,3.95,3.64,4.37,7.83,1.48,48.81,8.96,87.01,10.67,38.2,1.71,79.69-2.08,87.61-2.85,2.23-.22,3.92-1.91,4.01-4.02l.42-9.38c.09-2.11-1.43-3.95-3.64-4.37h0c-7.83-1.48-48.81-8.96-87.01-10.67Z"/>
  <g>
    <path class="cls-13" d="m113.73,52.69c3.08,1.37,6.47,2.2,10.07,2.36,14.76.66,27.24-10.22,27.87-24.31.63-14.09-10.83-26.04-25.59-26.7-14.76-.66-27.24,10.22-27.87,24.31-.08,1.76.03,3.49.31,5.16m0,0c1.42,8.47,7.23,15.63,15.21,19.18m-4.81-23.86c.38-8.44,7.86-14.96,16.7-14.57,8.85.4,15.71,7.56,15.34,16-.38,8.44-7.86,14.96-16.7,14.57-8.85-.4-15.71-7.56-15.34-16"/>
    <path class="cls-1" d="m123.73,56.36c-3.68-.16-7.23-1-10.54-2.47,0,0,0,0,0,0-8.52-3.79-14.49-11.32-15.97-20.16h0c-.3-1.78-.41-3.62-.33-5.44.66-14.79,13.78-26.26,29.25-25.57,15.47.69,27.51,13.29,26.85,28.08-.66,14.79-13.78,26.26-29.25,25.57Zm-9.47-4.88c3.01,1.34,6.24,2.09,9.59,2.24,14.01.63,25.9-9.71,26.5-23.05.6-13.34-10.32-24.7-24.33-25.33-14.01-.63-25.9,9.71-26.5,23.05-.07,1.64.03,3.29.3,4.89h0c1.34,7.97,6.74,14.77,14.45,18.19h0Zm9.93-5.34c-9.56-.43-17-8.22-16.59-17.38.41-9.15,8.52-16.25,18.08-15.83,9.56.43,17,8.22,16.59,17.38-.41,9.15-8.52,16.25-18.08,15.82Zm1.37-30.57c-8.11-.36-14.98,5.61-15.33,13.31-.34,7.7,5.97,14.26,14.08,14.63,8.11.36,14.98-5.61,15.33-13.31.34-7.7-5.97-14.26-14.08-14.63Z"/>
  </g>
  <path class="cls-10" d="m125.1,25.81c-5.96-.27-11.55,1.36-16.12,4.33.27,1.18.48,2.37.83,3.55.77,2.66,2.34,5.3,4.48,7.2,2.71-2.33,6.35-3.69,10.3-3.51,7.96.36,14.14,6.8,13.8,14.39-.34,7.59-7.07,13.46-15.03,13.1-7.96-.36-14.14-6.8-13.8-14.39l.13-.27c-1.75-1.4-3.28-2.58-4.5-4.76-1.28-2.28-2.82-4.42-4.32-6.59l-.55.59c-1.7,3.15-2.73,6.7-2.9,10.47-.63,13.99,10.75,25.86,25.41,26.51,14.66.66,27.05-10.15,27.68-24.14.63-13.99-10.75-25.86-25.41-26.51Z"/>
  <path class="cls-1" d="m141.1,295.36c-.21,0-.37-.04-.48-.09-.47-.23-.79-.76-.77-1.28.03-.73.65-1.29,1.38-1.26.1,0,.2.02.3.05,2.96-.32,26.61-7.26,42.06-20.55,16.64-14.31,36.81-38.92,38.42-74.84.03-.73.65-1.29,1.38-1.26.73.03,1.29.65,1.26,1.38-1.65,36.86-22.3,62.06-39.33,76.72-15.15,13.04-39.96,21.32-44.21,21.13Zm1.39-1.26h.01s-.01,0-.01,0Z"/>
  <path class="cls-1" d="m85.09,292.85c-4.25-.19-28.22-10.66-42.15-25-15.65-16.12-33.97-43.06-32.32-79.92.03-.73.65-1.29,1.38-1.26.73.03,1.29.65,1.26,1.38-1.61,35.92,16.29,62.22,31.58,77.97,14.2,14.62,37.14,23.64,40.06,24.22.79-.14,1.6.52,1.56,1.35-.02.53-.39,1.02-.88,1.21-.11.04-.27.06-.48.05Z"/>
  <g>
    <polygon class="cls-2" points="122.78 77.7 127.17 84.96 135.55 87.43 129.7 93.63 129.86 101.99 121.85 98.57 113.56 101.26 114.47 92.95 109.19 86.25 117.76 84.54 122.78 77.7"/>
    <path class="cls-1" d="m129.8,103.31c-.16,0-.31-.04-.46-.11l-7.56-3.23-7.81,2.54c-.43.14-.89.05-1.24-.23-.35-.28-.53-.72-.48-1.17l.85-7.78-4.94-6.27c-.28-.36-.36-.84-.2-1.27.16-.43.53-.75.98-.84l8.07-1.62,4.72-6.42c.52-.71,1.74-.65,2.19.1l4.13,6.82,7.89,2.33c.44.13.78.48.9.92.12.44,0,.92-.31,1.25l-5.48,5.81.15,7.82c0,.45-.21.87-.58,1.12-.24.16-.52.24-.8.22Zm-7.89-6.06c.16,0,.31.04.46.1l6.14,2.62-.12-6.32c0-.35.12-.68.36-.93l4.38-4.64-6.32-1.87c-.31-.09-.58-.3-.75-.58l-3.37-5.57-3.85,5.24c-.2.26-.48.45-.8.51l-6.46,1.29,3.95,5.01c.21.27.31.62.28.96l-.68,6.29,6.35-2.06c.15-.05.31-.07.47-.06Z"/>
  </g>
  <path class="cls-1" d="m156.14,299.57c-24.4-1.09-42.79-30.36-43.01-30.73-.38-.62-.19-1.43.43-1.81.62-.38,1.43-.19,1.81.43.26.42,26.33,41.89,56.47,25.76.64-.34,1.44-.1,1.78.54.34.64.1,1.44-.54,1.78-5.85,3.13-11.55,4.27-16.94,4.03Z"/>
  <path class="cls-1" d="m69.73,295.7c-5.4-.24-10.96-1.88-16.52-5.53-.61-.4-.78-1.22-.38-1.83.4-.61,1.22-.78,1.82-.38,28.59,18.76,58.25-20.21,58.54-20.61.44-.58,1.26-.7,1.85-.27.58.44.7,1.26.27,1.84-.25.34-21.18,27.85-45.58,26.76Z"/>
  <path class="cls-1" d="m137.92,311.08c-8.22-.37-16.97-6.96-25.38-19.34-.16-.23-.28-.41-.35-.52-.42-.59-.29-1.41.3-1.84.59-.42,1.42-.29,1.84.3.09.12.22.31.39.57,6.15,9.06,18.32,23.24,30.71,16.38.64-.35,1.44-.12,1.79.52.35.64.12,1.44-.52,1.79-2.83,1.56-5.77,2.27-8.79,2.13Z"/>
  <path class="cls-1" d="m85.59,308.3c-2.51-.11-4.98-.84-7.3-2.41-.6-.41-.76-1.23-.35-1.83.41-.6,1.23-.76,1.83-.35,12.69,8.58,32.3-13.88,32.5-14.11.48-.55,1.31-.61,1.86-.14.55.48.61,1.31.14,1.86-.73.84-15.34,17.58-28.67,16.98Z"/>
  <path class="cls-1" d="m193.64,110.14c-.1,0-.2-.02-.29-.05-.7-.19-1.11-.92-.92-1.62,1.09-3.93,1.73-7.91,1.91-11.81.17-3.91-.11-7.92-.84-11.94-.13-.72.34-1.4,1.06-1.53.72-.13,1.4.34,1.53,1.06.77,4.21,1.07,8.43.88,12.53-.18,4.1-.86,8.28-2,12.4-.17.6-.73.99-1.33.97Z"/>
  <path class="cls-1" d="m49.3,103.68c-.6-.03-1.12-.46-1.24-1.08-.77-4.21-1.06-8.43-.88-12.53.18-4.1.85-8.27,2-12.4.19-.7.93-1.11,1.62-.92.7.19,1.11.92.92,1.62-1.09,3.94-1.73,7.91-1.9,11.82-.17,3.9.11,7.92.84,11.94.13.72-.34,1.4-1.06,1.53-.1.02-.2.02-.3.02Z"/>
  <path class="cls-1" d="m173.88,111.32c-.06,0-.12,0-.18-.02-.72-.13-1.19-.82-1.06-1.53.58-3.2,1.32-8.22,1.58-14.02.26-5.8-.03-10.87-.32-14.1-.06-.72.47-1.37,1.2-1.43.73-.06,1.36.47,1.43,1.2.3,3.31.59,8.51.33,14.45-.27,5.94-1.03,11.09-1.62,14.37-.12.66-.71,1.11-1.35,1.08Z"/>
  <path class="cls-1" d="m68.88,106.62c-.65-.03-1.19-.53-1.25-1.2-.3-3.31-.59-8.5-.33-14.45.27-5.96,1.03-11.1,1.62-14.37.13-.72.82-1.19,1.53-1.06.72.13,1.19.82,1.06,1.53-.58,3.19-1.32,8.21-1.58,14.02-.26,5.81.03,10.87.32,14.1.07.73-.47,1.37-1.19,1.43-.06,0-.12,0-.18,0Z"/>
  <path class="cls-1" d="m79.75,146.61c-.17,0-.34-.05-.51-.13-.66-.31-.94-1.1-.62-1.76,3.34-7.02,11.25-11.12,19.24-10,.72.1,1.22.77,1.12,1.49-.1.72-.76,1.23-1.49,1.12-6.85-.97-13.64,2.53-16.49,8.52-.24.49-.74.77-1.25.75Z"/>
  <path class="cls-1" d="m58.11,77.9c-.63-.03-1.17-.5-1.25-1.15-.88-6.89-6.79-12.4-14.04-13.09-.72-.07-1.26-.71-1.19-1.44.07-.73.73-1.23,1.44-1.19,8.47.81,15.37,7.27,16.41,15.38.09.72-.42,1.38-1.14,1.47-.08,0-.15.01-.23,0Z"/>
  <path class="cls-1" d="m60.08,65.32c-.1,0-.2-.02-.3-.05-.7-.2-1.1-.93-.91-1.63,2.08-7.29-1.93-14.92-9.33-17.75-.16-.06-.33-.12-.49-.18-.69-.24-1.05-.99-.81-1.68.24-.69.99-1.05,1.68-.81.19.07.38.13.56.21,8.69,3.33,13.38,12.33,10.92,20.94-.17.6-.73.98-1.33.95Z"/>
  <g>
    <path class="cls-1" d="m65.97,51.13c-.2,0-.41-.07-.6-.17-.63-.36-.85-1.17-.49-1.8,3.77-6.57,1.76-14.83-4.66-19.22-.14-.09-.28-.19-.42-.28-.61-.39-.8-1.21-.4-1.82.39-.61,1.21-.79,1.82-.4.16.1.32.21.49.32,7.57,5.18,9.92,14.94,5.46,22.71-.25.44-.73.68-1.2.66Z"/>
    <path class="cls-1" d="m75.4,38.6c-.3-.01-.6-.13-.83-.35-.54-.49-.57-1.33-.08-1.86.35-.38.68-.78.99-1.19,4.2-5.61,3.81-13.17-.95-18.39-.49-.54-.45-1.37.08-1.86.54-.49,1.37-.45,1.86.08,5.63,6.16,6.09,15.11,1.12,21.75-.36.48-.75.95-1.16,1.4-.27.3-.65.44-1.03.42Z"/>
  </g>
  <path class="cls-1" d="m87.35,28.85c-.41-.02-.81-.23-1.05-.6-.4-.61-.23-1.43.38-1.82,6.35-4.15,8.54-12.24,5.09-18.84-.34-.65-.09-1.44.56-1.78.65-.34,1.44-.09,1.78.56,4.07,7.8,1.5,17.37-5.99,22.27-.24.16-.51.23-.78.21Z"/>
  <path class="cls-1" d="m112.55,7.18c-.7-.03-1.26-.61-1.26-1.32,0-1.07-.11-2.14-.35-3.2-.16-.71.29-1.42,1-1.58.71-.16,1.42.29,1.57,1,.28,1.25.42,2.52.41,3.79,0,.73-.6,1.32-1.32,1.31-.02,0-.04,0-.05,0Z"/>
  <path class="cls-1" d="m59.8,193.92c-.73-.03-1.29-.65-1.26-1.38.28-6.35,1.67-12.52,4.11-18.35.28-.67,1.05-.99,1.73-.71.67.28.99,1.05.71,1.73-2.33,5.55-3.64,11.42-3.91,17.45-.03.73-.65,1.29-1.38,1.26Z"/>
  <path class="cls-1" d="m68.37,194.3c-.73-.03-1.29-.65-1.26-1.38.24-5.44,1.43-10.73,3.52-15.73.28-.67,1.05-.99,1.73-.71.67.28.99,1.05.71,1.73-1.98,4.71-3.09,9.7-3.32,14.83-.03.73-.65,1.29-1.38,1.26Z"/>
  <path class="cls-1" d="m76.92,194.69c-.73-.03-1.29-.65-1.26-1.38.2-4.49,1.18-8.86,2.91-12.99.28-.67,1.05-.99,1.73-.71.67.28.99,1.05.71,1.72-1.61,3.84-2.52,7.91-2.71,12.09-.03.73-.65,1.29-1.38,1.26Z"/>
  <path class="cls-11" d="m135.26,4.76c-2.36-3.14-6.64-2.94-9.08-3.05-2.44-.11-6.69-.69-9.32,2.23-2.1,2.34-2.91,7.89-2.88,10.46.05,4.69,2.8,11.04,11.12,11.41,8.31.37,11.62-5.7,12.09-10.37.26-2.56-.04-8.16-1.93-10.68Z"/>
  <path class="cls-1" d="m125.04,27.13c-11.32-.51-12.44-7.8-12.16-14.09.28-6.3,2.06-13.46,13.37-12.95,11.32.51,12.44,7.8,12.16,14.09-.28,6.29-2.06,13.45-13.37,12.95Zm1.09-24.41c-9.35-.42-10.38,5.17-10.62,10.43-.24,5.27.3,10.92,9.65,11.34,9.35.42,10.39-5.17,10.62-10.43.24-5.27-.3-10.92-9.65-11.34Z"/>
  <g>
    <path class="cls-14" d="m100.32,39.47c1.97,4.41,5.21,8.2,9.29,10.94m-.7-20.24c-.02-.45-.02-.9,0-1.35m5.34,12.09c-3.13-2.68-5.14-6.5-5.34-10.74"/>
    <path class="cls-1" d="m109.55,51.73c-.23-.01-.47-.08-.67-.22-4.31-2.9-7.69-6.87-9.76-11.5-.3-.66,0-1.44.66-1.74.67-.3,1.44,0,1.74.66,1.87,4.17,4.92,7.77,8.82,10.39.6.41.76,1.22.36,1.83-.27.4-.71.6-1.15.58Zm4.64-9.5c-.28-.01-.57-.12-.8-.32-3.48-2.98-5.59-7.23-5.8-11.67h0c-.02-.49-.02-.98,0-1.48.03-.73.65-1.29,1.38-1.26.73.03,1.29.65,1.26,1.38-.02.41-.02.82,0,1.23h0c.18,3.77,1.91,7.25,4.88,9.8.55.47.62,1.31.14,1.86-.27.32-.67.48-1.06.46Z"/>
  </g>
  <path class="cls-1" d="m122.78,77.78c-15.36-.69-27.33-13.2-26.67-27.89.17-3.89,1.2-7.61,3.05-11.04.35-.64,1.15-.88,1.79-.53.64.35.88,1.14.53,1.79-1.66,3.08-2.58,6.41-2.74,9.91-.59,13.24,10.24,24.51,24.15,25.14,13.91.62,25.71-9.64,26.3-22.88.59-13.24-10.24-24.51-24.15-25.14-5.53-.25-10.86,1.19-15.4,4.15-.61.4-1.43.23-1.82-.38-.4-.61-.23-1.43.38-1.82,5.01-3.27,10.87-4.85,16.96-4.58,15.36.69,27.33,13.2,26.67,27.89-.66,14.69-13.69,26.08-29.05,25.39Zm.52-11.58c-8.67-.39-15.43-7.46-15.05-15.77.03-.73.65-1.29,1.38-1.26.73.03,1.29.65,1.26,1.38-.31,6.85,5.32,12.69,12.54,13.02,7.22.32,13.34-4.99,13.65-11.85.31-6.86-5.32-12.7-12.54-13.02-3.51-.16-6.86,1-9.44,3.25-.55.48-1.38.42-1.86-.13-.48-.55-.42-1.38.13-1.86,3.09-2.7,7.11-4.08,11.29-3.89,8.67.39,15.42,7.46,15.05,15.77-.37,8.31-7.73,14.75-16.4,14.36Z"/>
  <path class="cls-1" d="m113.67,54.01c-.16,0-.32-.04-.48-.11-6.33-2.81-11.33-7.74-14.07-13.88h0c-1.66-3.72-2.41-7.66-2.23-11.72.03-.73.65-1.29,1.38-1.26.73.03,1.29.65,1.26,1.38-.16,3.65.51,7.19,2,10.53h0c2.48,5.55,7.01,10,12.74,12.55.67.3.96,1.07.67,1.74-.23.51-.74.81-1.26.78Zm.53-11.78c-.28-.01-.57-.12-.8-.32-3.91-3.35-6.03-8.14-5.8-13.15.03-.73.65-1.29,1.38-1.26.73.03,1.29.65,1.26,1.38-.19,4.19,1.59,8.21,4.88,11.03.55.47.62,1.31.14,1.86-.27.32-.67.48-1.06.46Z"/>
</svg>