<?xml version="1.0" encoding="UTF-8"?>
<svg id="Layer_1" data-name="Layer 1" xmlns="http://www.w3.org/2000/svg" xmlns:xlink="http://www.w3.org/1999/xlink" viewBox="0 0 294.34 200.53">
  <defs>
    <style>
      .cls-1 {
        fill: #010101;
      }

      .cls-2 {
        fill: #fff;
      }

      .cls-3 {
        fill: #fbc311;
      }

      .cls-4 {
        fill: url(#Degradado_sin_nombre_460);
      }

      .cls-5 {
        fill: url(#Degradado_sin_nombre_241);
      }

      .cls-6 {
        fill: url(#Degradado_sin_nombre_41);
      }

      .cls-7 {
        fill: url(#Degradado_sin_nombre_45);
      }

      .cls-8 {
        fill: url(#Degradado_sin_nombre_44);
      }

      .cls-9 {
        fill: url(#Degradado_sin_nombre_43);
      }

      .cls-10 {
        fill: url(#Degradado_sin_nombre_37);
      }

      .cls-11 {
        fill: url(#Degradado_sin_nombre_34);
      }

      .cls-12 {
        fill: url(#Degradado_sin_nombre_39);
      }

      .cls-13 {
        fill: url(#Degradado_sin_nombre_7);
      }

      .cls-14 {
        fill: url(#Degradado_sin_nombre_45-2);
      }

      .cls-15 {
        fill: url(#Degradado_sin_nombre_45-3);
      }

      .cls-16 {
        fill: url(#Degradado_sin_nombre_44-2);
      }
    </style>
    <radialGradient id="Degradado_sin_nombre_45" data-name="Degradado sin nombre 45" cx="7661.4" cy="-82.65" fx="7661.4" fy="-82.65" r="26.84" gradientTransform="translate(7809.06 -753.55) rotate(172.49) scale(1 -1)" gradientUnits="userSpaceOnUse">
      <stop offset=".29" stop-color="#010101"/>
      <stop offset=".36" stop-color="#011d18"/>
      <stop offset=".44" stop-color="#023c32"/>
      <stop offset=".54" stop-color="#035446"/>
      <stop offset=".63" stop-color="#036554"/>
      <stop offset=".74" stop-color="#036f5d"/>
      <stop offset=".87" stop-color="#047360"/>
    </radialGradient>
    <radialGradient id="Degradado_sin_nombre_45-2" data-name="Degradado sin nombre 45" cx="7592.76" cy="-121.42" fx="7592.76" fy="-121.42" r="25" xlink:href="#Degradado_sin_nombre_45"/>
    <radialGradient id="Degradado_sin_nombre_44" data-name="Degradado sin nombre 44" cx="7628.25" cy="-104.44" fx="7628.25" fy="-104.44" r="52.46" gradientTransform="translate(7809.06 -753.55) rotate(172.49) scale(1 -1)" gradientUnits="userSpaceOnUse">
      <stop offset=".23" stop-color="#010101"/>
      <stop offset=".4" stop-color="#fff"/>
      <stop offset=".55" stop-color="#fff"/>
      <stop offset=".58" stop-color="#fadbdc"/>
      <stop offset=".65" stop-color="#ee8084"/>
      <stop offset=".72" stop-color="#e21f26"/>
    </radialGradient>
    <radialGradient id="Degradado_sin_nombre_45-3" data-name="Degradado sin nombre 45" cx="7762.46" cy="-234.61" fx="7762.46" fy="-234.61" r="22.56" xlink:href="#Degradado_sin_nombre_45"/>
    <radialGradient id="Degradado_sin_nombre_44-2" data-name="Degradado sin nombre 44" cx="7800.17" cy="-216.59" fx="7800.17" fy="-216.59" r="52.46" xlink:href="#Degradado_sin_nombre_44"/>
    <linearGradient id="Degradado_sin_nombre_43" data-name="Degradado sin nombre 43" x1="7595.46" y1="-170.99" x2="7620.34" y2="-170.99" gradientTransform="translate(-7363.48 -99.94) scale(1 -1)" gradientUnits="userSpaceOnUse">
      <stop offset="0" stop-color="#fbc311"/>
      <stop offset=".24" stop-color="#fbc311"/>
      <stop offset=".47" stop-color="#010101"/>
    </linearGradient>
    <linearGradient id="Degradado_sin_nombre_41" data-name="Degradado sin nombre 41" x1="7568.66" y1="-191.25" x2="7639.77" y2="-191.25" gradientTransform="translate(7809.06 -753.55) rotate(172.49) scale(1 -1)" gradientUnits="userSpaceOnUse">
      <stop offset=".14" stop-color="#010101"/>
      <stop offset=".4" stop-color="#fbc311"/>
      <stop offset=".71" stop-color="#fbc311"/>
    </linearGradient>
    <linearGradient id="Degradado_sin_nombre_460" data-name="Degradado sin nombre 460" x1="7772.5" y1="-107.54" x2="7843.61" y2="-107.54" gradientTransform="translate(7809.06 -753.55) rotate(172.49) scale(1 -1)" gradientUnits="userSpaceOnUse">
      <stop offset="0" stop-color="#fbc311"/>
      <stop offset=".52" stop-color="#fbc311"/>
      <stop offset=".83" stop-color="#010101"/>
    </linearGradient>
    <linearGradient id="Degradado_sin_nombre_39" data-name="Degradado sin nombre 39" x1="7766.83" y1="-124.44" x2="7816.81" y2="-124.44" gradientTransform="translate(7809.06 -753.55) rotate(172.49) scale(1 -1)" gradientUnits="userSpaceOnUse">
      <stop offset=".26" stop-color="#010101"/>
      <stop offset=".57" stop-color="#fbc311"/>
      <stop offset="1" stop-color="#fbc311"/>
    </linearGradient>
    <linearGradient id="Degradado_sin_nombre_7" data-name="Degradado sin nombre 7" x1="7706.14" y1="-76.7" x2="7706.14" y2="-204.25" gradientTransform="translate(7809.06 -753.55) rotate(172.49) scale(1 -1)" gradientUnits="userSpaceOnUse">
      <stop offset=".24" stop-color="#fff"/>
      <stop offset=".38" stop-color="#010101"/>
      <stop offset=".69" stop-color="#010101"/>
      <stop offset=".79" stop-color="#fff"/>
    </linearGradient>
    <radialGradient id="Degradado_sin_nombre_241" data-name="Degradado sin nombre 241" cx="7706.14" cy="-144.63" fx="7706.14" fy="-144.63" r="87.82" gradientTransform="translate(7809.06 -753.55) rotate(172.49) scale(1 -1)" gradientUnits="userSpaceOnUse">
      <stop offset=".65" stop-color="#e21f26"/>
      <stop offset=".69" stop-color="#db1e24"/>
      <stop offset=".74" stop-color="#c91b22"/>
      <stop offset=".79" stop-color="#ac171d"/>
      <stop offset=".85" stop-color="#831216"/>
      <stop offset=".92" stop-color="#4e0b0d"/>
      <stop offset=".98" stop-color="#0f0203"/>
      <stop offset="1" stop-color="#010101"/>
    </radialGradient>
    <linearGradient id="Degradado_sin_nombre_37" data-name="Degradado sin nombre 37" x1="7712.15" y1="-76.95" x2="7712.15" y2="-209.18" gradientTransform="translate(7809.06 -753.55) rotate(172.49) scale(1 -1)" gradientUnits="userSpaceOnUse">
      <stop offset=".24" stop-color="#e21f26"/>
      <stop offset=".38" stop-color="#010101"/>
      <stop offset=".69" stop-color="#010101"/>
      <stop offset=".79" stop-color="#fff"/>
    </linearGradient>
    <linearGradient id="Degradado_sin_nombre_34" data-name="Degradado sin nombre 34" x1="7595.46" y1="-149.4" x2="7816.81" y2="-149.4" gradientTransform="translate(7809.06 -753.55) rotate(172.49) scale(1 -1)" gradientUnits="userSpaceOnUse">
      <stop offset=".06" stop-color="#010101"/>
      <stop offset=".15" stop-color="#fbc311"/>
      <stop offset=".85" stop-color="#fbc311"/>
      <stop offset=".86" stop-color="#f4be10"/>
      <stop offset=".87" stop-color="#e2b00f"/>
      <stop offset=".89" stop-color="#c5990d"/>
      <stop offset=".9" stop-color="#9c790a"/>
      <stop offset=".92" stop-color="#675007"/>
      <stop offset=".94" stop-color="#281f03"/>
      <stop offset=".95" stop-color="#010101"/>
    </linearGradient>
  </defs>
  <g>
    <path class="cls-7" d="m192.13,158.83c-.48,2.66-1.25,8.81,2.81,21.3,1.56,4.8,4.13,11.46,8.43,18.96,3-3.67,7.3-9.83,10.11-18.44,2.43-7.43,2.87-13.96,2.82-18.39-7.59-9.87-15.58-14.81-19.92-12.66-2.83,1.4-3.59,5.56-4.26,9.23Z"/>
    <path class="cls-1" d="m203.55,200.52c-.1.01-.2.02-.31,0-.47-.04-.89-.31-1.13-.72-3.53-6.16-6.41-12.63-8.55-19.23-4.4-13.54-3.24-19.91-2.86-22l1.41.26-1.41-.26c.73-4,1.55-8.53,5.03-10.26,5.12-2.53,13.63,2.59,21.69,13.07.19.25.29.55.3.86.07,6.43-.9,12.77-2.89,18.86-2.26,6.9-5.75,13.27-10.37,18.91-.23.28-.56.47-.92.51Zm-5.5-49.94c-.38.05-.73.15-1.03.3-2.19,1.08-2.88,4.86-3.48,8.2h0c-.35,1.92-1.41,7.75,2.76,20.6,1.87,5.76,4.31,11.41,7.27,16.83,3.75-4.94,6.62-10.42,8.55-16.32,1.84-5.64,2.77-11.51,2.75-17.45-6.9-8.84-13.34-12.63-16.82-12.17Zm-5.93,8.25l-1.41-.26h0l1.41.26Z"/>
  </g>
  <g>
    <path class="cls-14" d="m263.65,128.64c3.12.16,7.26.02,11.94-1.12,8.36-2.04,14.18-6.24,17.3-8.9-2.78-2.47-8.05-6.46-15.74-8.65-10.5-2.98-19.33-.83-23,.3,3.16,6.12,6.33,12.24,9.49,18.37Z"/>
    <path class="cls-1" d="m271.42,129.76c-2.59.34-5.21.45-7.84.31-.51-.03-.97-.32-1.2-.77l-9.49-18.37c-.19-.38-.21-.82-.05-1.21.16-.39.5-.69.9-.81,5.47-1.67,14.03-3.08,23.81-.3,5.97,1.69,11.6,4.79,16.3,8.95.31.28.49.67.48,1.09,0,.42-.19.81-.51,1.08-5.21,4.44-11.4,7.62-17.89,9.2-1.49.36-3,.64-4.52.84Zm-6.88-2.52c3.62.11,7.22-.26,10.71-1.11,5.53-1.35,10.82-3.94,15.4-7.53-4.1-3.33-8.87-5.82-13.89-7.25-8.17-2.32-15.44-1.5-20.53-.18l8.31,16.07Z"/>
  </g>
  <path class="cls-8" d="m196.05,152.17c0-3.53,1.59-6.94,5.77-8.16-4.35-.1-6.77-2.98-7.69-6.39-1.55-5.76,1.23-12.99-7.59-16.6,8.83,3.61,11.91-3.51,17.05-6.53,3.45-2.03,7.78-2.23,11.18,2.16l.11-.08c-3.38-4.41-2.09-8.55.75-11.36,4.23-4.2,11.89-5.38,10.65-14.83,1.25,9.45,8.95,8.6,14.13,11.56,3.47,1.99,5.79,5.65,3.67,10.78l.04.02c2.13-5.13,6.37-6.07,10.22-5.02,5.75,1.57,10.59,7.63,18.16,1.83-7.57,5.8-2.99,12.05-2.98,18.01,0,3.74-1.76,7.35-6.5,8.38,4.85-.23,7.49,2.79,8.45,6.41,1.53,5.76-1.27,12.99,7.54,16.62-8.82-3.63-11.92,3.47-17.07,6.48-3.45,2.02-7.79,2.2-11.17-2.2l-.03.03c3.38,4.41,2.09,8.55-.75,11.36-4.23,4.2-11.89,5.38-10.65,14.83-1.25-9.45-8.95-8.6-14.13-11.56-3.47-1.99-5.79-5.65-3.67-10.78l-.12-.05c-2.15,5.12-6.38,6.05-10.24,4.99-5.75-1.59-10.57-7.66-18.16-1.89,7.59-5.77,3.03-12.04,3.03-18Z"/>
  <g>
    <path class="cls-15" d="m72.86,24.68c1.28-3.23,3.83-8.45,8.78-13.44,5.96-6.01,12.4-8.66,15.87-9.81.76,3.9,1.64,11.19-.7,19.77-1.82,6.67-4.88,11.54-7.07,14.47-.6.25-5.72,2.28-10.79-.62-5.8-3.33-6.08-10.01-6.09-10.38Z"/>
    <path class="cls-1" d="m86.78,37.91c-2.31.3-5.43.18-8.54-1.61-6.56-3.76-6.8-11.27-6.81-11.58,0-.19.03-.38.1-.56,2.08-5.25,5.14-9.93,9.09-13.92,4.56-4.6,10.24-8.11,16.44-10.16.39-.13.82-.08,1.17.12.36.21.6.56.68.96,1.33,6.77,1.08,13.83-.72,20.42-1.47,5.4-3.93,10.43-7.3,14.95-.15.21-.36.37-.6.47-.45.19-1.75.67-3.51.91Zm-12.47-13c.1,1.22.8,6.29,5.35,8.9,3.89,2.23,7.92,1.12,9.17.68,3.03-4.15,5.24-8.74,6.59-13.66,1.54-5.64,1.87-11.65.96-17.48-5.16,1.96-9.88,5.01-13.73,8.9-3.61,3.64-6.41,7.89-8.34,12.66Z"/>
  </g>
  <path class="cls-16" d="m10.95,63.45c0-3.53,1.59-6.94,5.77-8.16-4.35-.1-6.77-2.98-7.69-6.39-1.55-5.76,1.23-12.99-7.59-16.6,8.83,3.61,11.91-3.51,17.05-6.53,3.45-2.03,7.78-2.23,11.18,2.16l.11-.08c-3.38-4.41-2.09-8.55.75-11.36,4.23-4.2,11.89-5.38,10.65-14.83,1.25,9.45,8.95,8.6,14.13,11.56,3.47,1.99,5.79,5.65,3.67,10.78l.04.02c2.13-5.13,6.37-6.07,10.22-5.02,5.75,1.57,10.59,7.63,18.16,1.83-7.57,5.8-2.99,12.05-2.98,18.01,0,3.74-1.76,7.35-6.5,8.38,4.85-.23,7.49,2.79,8.45,6.41,1.53,5.76-1.27,12.99,7.54,16.62-8.82-3.63-11.92,3.47-17.07,6.48-3.45,2.02-7.79,2.2-11.17-2.2l-.03.03c3.38,4.41,2.09,8.55-.75,11.36-4.23,4.2-11.89,5.38-10.65,14.83-1.25-9.45-8.95-8.6-14.13-11.56-3.47-1.99-5.79-5.65-3.67-10.78l-.12-.05c-2.15,5.12-6.38,6.05-10.24,4.99-5.75-1.59-10.57-7.66-18.16-1.89,7.59-5.77,3.03-12.04,3.03-18Z"/>
  <path class="cls-1" d="m47.89,52.62c-.51.07-1.01-.14-1.33-.55l-17.93-23.36c-3.38-4.4-3.05-9.35.88-13.25,1.25-1.25,2.75-2.22,4.19-3.17,3.67-2.4,6.83-4.47,6.04-10.46-.1-.78.45-1.51,1.23-1.61.78-.1,1.51.45,1.61,1.23.79,5.99,4.38,7.17,8.55,8.53,1.64.54,3.34,1.1,4.87,1.97,4.8,2.75,6.4,7.45,4.28,12.57l-11.26,27.21c-.2.47-.63.81-1.14.87Zm-5.9-44.76c-1.31,3.3-4.13,5.14-6.71,6.83-1.39.91-2.69,1.76-3.74,2.8h0c-1.67,1.66-3.98,5.1-.62,9.47l16.42,21.39,10.31-24.91c2.11-5.09-1.01-7.82-3.06-8.99-1.28-.73-2.77-1.22-4.34-1.74-2.94-.96-6.13-2.01-8.26-4.86Zm-11.47,8.62h.01s-.01,0-.01,0Z"/>
  <path class="cls-1" d="m77.1,48.81s-.01,0-.02,0l-29.2,3.81c-.51.07-1.01-.14-1.32-.55-.31-.41-.38-.95-.19-1.42l11.3-27.19h0c2.13-5.12,6.59-7.3,11.92-5.85,1.71.47,3.3,1.27,4.84,2.05,3.91,1.98,7.28,3.69,12.08.02.63-.48,1.53-.36,2.01.27.16.21.25.44.28.68.06.49-.13,1-.55,1.33-4.79,3.67-4.02,7.37-3.13,11.66.35,1.69.72,3.44.72,5.21.01,5.53-3.26,9.26-8.74,9.98Zm-27.13.65l26.73-3.49s.01,0,.02,0c5.45-.72,6.26-4.78,6.25-7.13,0-1.48-.32-3.01-.66-4.63-.63-3.03-1.31-6.32.1-9.58-.04,0-.08.01-.13.02-3.46.46-6.42-1.05-9.15-2.43-1.48-.75-2.87-1.46-4.3-1.85-2.27-.62-6.41-.9-8.52,4.19l-10.35,24.9Z"/>
  <path class="cls-1" d="m18.66,56.62c-5.46.72-9.58-2.02-11.01-7.34-.46-1.71-.57-3.49-.67-5.21-.26-4.37-.49-8.15-6.08-10.43-.49-.2-.81-.65-.88-1.14-.03-.24,0-.49.1-.73.3-.73,1.14-1.08,1.87-.78,5.59,2.29,8.4-.25,11.65-3.19,1.28-1.16,2.61-2.35,4.13-3.25,4.77-2.8,9.64-1.86,13.04,2.52l18.04,23.27c.31.41.39.95.19,1.42-.19.47-.63.81-1.13.88l-29.17,3.98s-.04,0-.06,0Zm-11.43-21.95c2.22,2.78,2.42,6.13,2.61,9.22.1,1.65.19,3.21.58,4.64.61,2.27,2.45,5.96,7.87,5.25.02,0,.03,0,.05,0l26.71-3.65-16.52-21.31c-3.38-4.36-7.29-3-9.32-1.81-1.27.75-2.43,1.8-3.66,2.91-2.29,2.07-4.75,4.34-8.32,4.76Z"/>
  <path class="cls-1" d="m54.42,102.17c-.78.1-1.51-.45-1.61-1.23-.79-5.99-4.38-7.17-8.55-8.53-1.64-.54-3.34-1.1-4.87-1.97-4.8-2.75-6.4-7.45-4.28-12.57l11.26-27.21c.39-.95,1.84-1.14,2.46-.32l17.93,23.36c3.38,4.4,3.05,9.35-.88,13.25-1.25,1.25-2.75,2.22-4.19,3.17-3.67,2.4-6.83,4.47-6.04,10.46.1.78-.45,1.51-1.23,1.61Zm-16.66-23.22c-2.11,5.09,1.01,7.82,3.06,8.99,1.28.73,2.77,1.22,4.34,1.74,2.94.96,6.13,2.01,8.25,4.86,1.31-3.3,4.13-5.14,6.71-6.84,1.39-.91,2.69-1.76,3.74-2.8,1.67-1.66,3.98-5.1.62-9.47l-16.42-21.39-10.31,24.91h0Z"/>
  <g>
    <path class="cls-2" d="m76.89,47.31c5.51-.73,8.45,2.45,9.48,6.32,1.53,5.76-1.27,12.99,7.54,16.62-8.82-3.63-11.92,3.47-17.07,6.48-3.45,2.02-7.79,2.2-11.17-2.2l-17.96-23.33,29.19-3.89Z"/>
    <path class="cls-1" d="m73.37,79.47c-3.32.44-6.45-.95-8.85-4.06l-17.96-23.33c-.31-.41-.39-.95-.19-1.42.19-.47.63-.81,1.14-.87l29.19-3.89h0s.01,0,.02,0c5.49-.72,9.61,2.03,11.03,7.37.45,1.71.56,3.49.66,5.22.25,4.37.47,8.15,6.05,10.45.49.2.81.65.88,1.14.03.24,0,.49-.1.73-.3.73-1.14,1.08-1.87.78-5.58-2.3-8.4.23-11.66,3.15-1.28,1.15-2.61,2.35-4.14,3.24-1.4.82-2.81,1.31-4.19,1.5Zm-23.02-27.17l16.45,21.36c3.36,4.37,7.28,3.02,9.32,1.83,1.28-.74,2.44-1.79,3.67-2.9,2.27-2.04,4.74-4.26,8.21-4.72.04,0,.08-.01.13-.02-2.21-2.78-2.4-6.14-2.58-9.23-.09-1.65-.18-3.22-.56-4.64-.61-2.28-2.44-5.99-7.88-5.27,0,0-.01,0-.02,0l-26.72,3.56Z"/>
  </g>
  <path class="cls-1" d="m30.15,85.1c-1.39.18-2.89.07-4.46-.37-1.7-.47-3.29-1.28-4.83-2.07-3.9-1.99-7.27-3.71-12.08-.06-.63.48-1.53.36-2.01-.27-.16-.21-.25-.44-.28-.68-.06-.49.13-1.01.55-1.33,4.81-3.66,4.05-7.36,3.17-11.65-.35-1.69-.7-3.44-.7-5.21,0-5.51,3.27-9.23,8.73-9.95.02,0,.04,0,.06,0l29.21-3.72c.51-.06,1.01.15,1.32.55.31.41.38.95.18,1.42l-11.39,27.15c-1.51,3.6-4.17,5.75-7.48,6.18Zm-17.16-7.44c3.48-.46,6.44,1.06,9.17,2.45,1.47.75,2.87,1.47,4.29,1.86,2.27.63,6.4.92,8.53-4.16l10.43-24.86-26.75,3.4s-.03,0-.05,0c-5.42.71-6.23,4.76-6.24,7.11,0,1.48.31,3.01.64,4.63.62,3.03,1.29,6.32-.13,9.58.03,0,.06,0,.09-.01Z"/>
  <g>
    <line class="cls-2" x1="47.7" y1="51.2" x2="44.37" y2="25.97"/>
    <path class="cls-1" d="m47.89,52.62c-.78.1-1.51-.45-1.61-1.23l-3.33-25.23c-.1-.78.45-1.51,1.23-1.61.78-.1,1.5.45,1.61,1.23l3.33,25.23c.1.78-.45,1.51-1.23,1.61Z"/>
  </g>
  <g>
    <line class="cls-2" x1="47.7" y1="51.2" x2="67.89" y2="35.71"/>
    <path class="cls-1" d="m47.89,52.62c-.49.06-1-.13-1.33-.55-.48-.63-.36-1.53.26-2.01l20.19-15.5c.63-.48,1.53-.36,2.01.26.48.63.36,1.53-.26,2.01l-20.19,15.5c-.21.16-.44.25-.68.28Z"/>
  </g>
  <g>
    <line class="cls-2" x1="47.7" y1="51.2" x2="71.22" y2="60.94"/>
    <path class="cls-1" d="m71.4,62.36c-.24.03-.49,0-.73-.1l-23.52-9.74c-.73-.3-1.08-1.14-.78-1.87.3-.73,1.14-1.08,1.87-.78l23.52,9.74c.73.3,1.08,1.14.78,1.87-.2.49-.65.81-1.14.87Z"/>
  </g>
  <g>
    <line class="cls-2" x1="47.7" y1="51.2" x2="51.03" y2="76.44"/>
    <path class="cls-1" d="m51.21,77.86c-.78.1-1.51-.45-1.61-1.23l-3.33-25.23c-.1-.79.45-1.51,1.23-1.61.78-.1,1.5.45,1.61,1.23l3.33,25.23c.1.78-.45,1.51-1.23,1.61Z"/>
  </g>
  <g>
    <line class="cls-2" x1="47.7" y1="51.2" x2="27.51" y2="66.7"/>
    <path class="cls-1" d="m27.7,68.12c-.49.06-1-.13-1.33-.55-.48-.63-.36-1.53.26-2.01l20.19-15.5c.63-.48,1.53-.36,2.01.26.48.63.36,1.53-.26,2.01l-20.19,15.5c-.21.16-.44.25-.68.28Z"/>
  </g>
  <g>
    <line class="cls-2" x1="47.7" y1="51.2" x2="24.18" y2="41.47"/>
    <path class="cls-1" d="m47.89,52.62c-.24.03-.49,0-.73-.1l-23.52-9.74c-.73-.3-1.08-1.14-.78-1.87.3-.73,1.14-1.08,1.87-.78l23.52,9.74c.73.3,1.08,1.14.78,1.87-.2.49-.65.81-1.14.87Z"/>
  </g>
  <g>
    <path class="cls-3" d="m35.86,52.77c-.86-6.54,3.74-12.54,10.28-13.4,6.54-.86,12.54,3.74,13.4,10.28.86,6.54-3.74,12.54-10.28,13.4-6.54.86-12.54-3.74-13.4-10.28Z"/>
    <path class="cls-1" d="m49.45,64.47c-7.31.96-14.05-4.2-15.01-11.51-.96-7.31,4.2-14.05,11.51-15.01,7.31-.96,14.05,4.2,15.01,11.51.96,7.31-4.2,14.05-11.51,15.01Zm-3.12-23.68c-5.75.76-9.8,6.05-9.05,11.79.76,5.75,6.05,9.8,11.79,9.05,5.74-.76,9.8-6.05,9.04-11.79-.76-5.75-6.05-9.8-11.79-9.05Z"/>
  </g>
  <g>
    <path class="cls-1" d="m42.85,51.84c-.35-2.68,1.53-5.14,4.22-5.5,2.68-.35,5.14,1.53,5.5,4.21.35,2.68-1.53,5.14-4.21,5.5-2.68.35-5.14-1.53-5.5-4.21Z"/>
    <path class="cls-1" d="m48.53,57.48c-3.46.46-6.65-1.99-7.11-5.45-.46-3.46,1.99-6.65,5.45-7.11,3.46-.46,6.65,1.99,7.1,5.45.46,3.46-1.99,6.65-5.45,7.1Zm-1.28-9.71c-1.89.25-3.23,1.99-2.98,3.89.25,1.89,1.99,3.23,3.89,2.98,1.89-.25,3.23-1.99,2.98-3.89-.25-1.89-1.99-3.23-3.89-2.98Z"/>
  </g>
  <path class="cls-1" d="m232.95,141.38c-.51.07-1.01-.14-1.33-.55l-17.93-23.36c-3.38-4.4-3.05-9.35.88-13.25h0c1.25-1.25,2.75-2.22,4.19-3.17,3.67-2.4,6.83-4.47,6.04-10.46-.1-.78.45-1.51,1.23-1.61.78-.1,1.51.45,1.61,1.23.79,5.99,4.38,7.17,8.55,8.53,1.64.54,3.34,1.1,4.87,1.97,4.8,2.75,6.4,7.45,4.28,12.57l-11.26,27.21c-.2.47-.63.81-1.14.87Zm-16.36-35.13c-1.67,1.66-3.98,5.1-.62,9.47l16.42,21.39,10.31-24.91c2.11-5.09-1.01-7.82-3.06-8.99-1.28-.73-2.77-1.22-4.34-1.74-2.94-.96-6.13-2.01-8.26-4.86-1.31,3.3-4.13,5.14-6.71,6.84-1.39.91-2.7,1.76-3.74,2.8h0Z"/>
  <path class="cls-1" d="m262.16,137.57s-.01,0-.02,0l-29.2,3.81c-.51.07-1.01-.14-1.32-.55-.31-.41-.38-.95-.18-1.42l11.3-27.19h0c2.13-5.12,6.59-7.31,11.92-5.85,1.71.47,3.3,1.27,4.84,2.05,3.91,1.98,7.28,3.69,12.08.02.63-.48,1.53-.36,2.01.27.16.21.25.44.28.68.06.49-.13,1-.55,1.33-4.79,3.67-4.02,7.37-3.13,11.66.35,1.69.72,3.44.72,5.21.01,5.53-3.26,9.26-8.74,9.98Zm-27.13.65l26.74-3.49s.01,0,.02,0c5.45-.72,6.26-4.78,6.25-7.13,0-1.48-.32-3.01-.66-4.63-.63-3.03-1.31-6.32.1-9.58-.04,0-.08.01-.13.02-3.46.46-6.42-1.05-9.15-2.43-1.48-.75-2.87-1.46-4.3-1.85-2.27-.62-6.41-.9-8.52,4.19l-10.35,24.9Z"/>
  <path class="cls-1" d="m203.72,145.37c-5.46.72-9.58-2.02-11.01-7.34-.46-1.71-.57-3.49-.67-5.21-.26-4.37-.49-8.15-6.08-10.43-.49-.2-.81-.65-.88-1.14-.03-.24,0-.49.1-.73.3-.73,1.14-1.08,1.87-.78,5.59,2.28,8.4-.25,11.65-3.19,1.28-1.16,2.61-2.35,4.13-3.25,4.77-2.8,9.64-1.86,13.04,2.52l18.04,23.27c.31.4.39.95.19,1.42-.19.47-.63.81-1.13.88l-29.18,3.98s-.04,0-.06,0Zm-11.43-21.95c2.22,2.78,2.42,6.14,2.6,9.22.1,1.65.19,3.21.58,4.64.61,2.27,2.45,5.96,7.87,5.25.02,0,.03,0,.05,0l26.72-3.65-16.52-21.31c-3.38-4.36-7.29-3-9.32-1.81-1.27.75-2.43,1.8-3.66,2.91-2.27,2.05-4.74,4.29-8.22,4.74-.03,0-.06,0-.09.01Z"/>
  <path class="cls-1" d="m239.48,190.93c-.78.1-1.51-.45-1.61-1.23-.79-5.99-4.38-7.17-8.55-8.53-1.64-.54-3.34-1.09-4.87-1.97-4.8-2.75-6.4-7.45-4.28-12.57h0l11.26-27.21c.2-.47.63-.81,1.14-.87h0c.51-.07,1.01.14,1.32.55l17.93,23.36c3.38,4.4,3.05,9.35-.88,13.25-1.25,1.25-2.75,2.22-4.19,3.17-3.67,2.4-6.83,4.47-6.04,10.46.1.78-.45,1.51-1.23,1.61Zm-16.66-23.22c-2.11,5.09,1.01,7.82,3.06,8.99,1.28.73,2.77,1.22,4.34,1.74,2.94.96,6.13,2.01,8.25,4.86,1.31-3.3,4.13-5.14,6.71-6.84,1.39-.91,2.69-1.76,3.74-2.8,1.67-1.66,3.98-5.1.62-9.47l-16.42-21.39-10.31,24.91h0Z"/>
  <path class="cls-1" d="m258.44,168.22c-3.32.44-6.45-.95-8.85-4.06l-17.96-23.33c-.31-.41-.38-.95-.19-1.42.2-.47.63-.81,1.14-.87l29.19-3.89h0s.01,0,.02,0c5.49-.72,9.61,2.03,11.03,7.37.45,1.71.56,3.49.66,5.22.25,4.37.47,8.15,6.05,10.45.49.2.81.65.88,1.14.03.24,0,.49-.1.73-.3.73-1.14,1.08-1.87.78-5.58-2.3-8.4.23-11.66,3.15-1.28,1.15-2.61,2.35-4.14,3.24-1.4.82-2.81,1.31-4.19,1.5Zm-23.02-27.17l16.45,21.36c3.36,4.37,7.28,3.02,9.32,1.83,1.28-.75,2.44-1.79,3.67-2.9,2.27-2.04,4.74-4.26,8.21-4.72.04,0,.08-.01.13-.02-2.21-2.78-2.4-6.14-2.58-9.23-.09-1.65-.18-3.22-.56-4.64-.61-2.28-2.44-5.99-7.88-5.27,0,0-.01,0-.02,0l-26.73,3.56Z"/>
  <path class="cls-1" d="m215.21,173.85c-1.39.18-2.88.07-4.46-.37-1.7-.47-3.29-1.28-4.83-2.07-3.9-1.99-7.26-3.72-12.08-.06-.63.48-1.53.36-2.01-.27-.16-.21-.25-.44-.28-.68-.06-.49.13-1.01.55-1.33,4.81-3.66,4.05-7.36,3.17-11.65-.35-1.69-.7-3.44-.7-5.21,0-5.51,3.27-9.23,8.73-9.95.02,0,.04,0,.06,0l29.21-3.72c.51-.06,1.01.15,1.32.55.31.41.38.95.18,1.42l-11.39,27.15c-1.51,3.6-4.18,5.75-7.48,6.18Zm-17.16-7.44c3.48-.46,6.44,1.06,9.17,2.45,1.47.75,2.87,1.47,4.29,1.86,2.27.63,6.4.92,8.53-4.16l10.43-24.86-26.75,3.4s-.04,0-.05,0c-5.42.71-6.23,4.76-6.24,7.11,0,1.48.31,3.01.64,4.63.62,3.03,1.3,6.32-.13,9.58.03,0,.06,0,.09-.01Z"/>
  <g>
    <line class="cls-2" x1="232.76" y1="139.96" x2="229.44" y2="114.73"/>
    <path class="cls-1" d="m232.95,141.38c-.79.1-1.51-.45-1.61-1.23l-3.33-25.23c-.1-.78.45-1.51,1.23-1.61.78-.1,1.5.45,1.61,1.23l3.33,25.23c.1.78-.45,1.51-1.23,1.61Z"/>
  </g>
  <g>
    <line class="cls-2" x1="232.76" y1="139.96" x2="252.95" y2="124.46"/>
    <path class="cls-1" d="m232.95,141.38c-.49.06-1-.13-1.33-.55-.48-.63-.36-1.53.26-2.01l20.19-15.5c.63-.48,1.53-.36,2.01.26.48.63.36,1.53-.26,2.01l-20.19,15.5c-.21.16-.44.25-.68.28Z"/>
  </g>
  <g>
    <line class="cls-2" x1="232.76" y1="139.96" x2="256.28" y2="149.7"/>
    <path class="cls-1" d="m256.47,151.12c-.24.03-.49,0-.73-.1l-23.52-9.74c-.73-.3-1.08-1.14-.78-1.87.3-.73,1.14-1.08,1.87-.78l23.52,9.74c.73.3,1.08,1.14.78,1.87-.2.49-.65.81-1.14.87Z"/>
  </g>
  <g>
    <line class="cls-2" x1="232.76" y1="139.96" x2="236.09" y2="165.2"/>
    <path class="cls-1" d="m236.28,166.62c-.79.1-1.51-.45-1.61-1.23l-3.33-25.23c-.1-.79.45-1.51,1.23-1.61.78-.1,1.5.45,1.61,1.23l3.33,25.23c.1.78-.45,1.51-1.23,1.61Z"/>
  </g>
  <g>
    <line class="cls-2" x1="232.76" y1="139.96" x2="212.57" y2="155.46"/>
    <path class="cls-1" d="m212.76,156.88c-.49.06-1-.13-1.33-.55-.48-.63-.36-1.53.27-2.01l20.19-15.5c.63-.48,1.53-.36,2.01.26.48.63.36,1.53-.26,2.01l-20.19,15.5c-.21.16-.44.25-.68.28Z"/>
  </g>
  <g>
    <line class="cls-2" x1="232.76" y1="139.96" x2="209.25" y2="130.23"/>
    <path class="cls-1" d="m232.95,141.38c-.24.03-.49,0-.73-.1l-23.52-9.74c-.73-.3-1.08-1.14-.78-1.87.3-.73,1.14-1.08,1.87-.78l23.52,9.73c.73.3,1.08,1.14.78,1.87-.2.49-.65.81-1.14.87Z"/>
  </g>
  <g>
    <path class="cls-3" d="m220.92,141.52c-.86-6.54,3.74-12.54,10.28-13.4,6.54-.86,12.54,3.74,13.4,10.28.86,6.54-3.74,12.54-10.28,13.4-6.54.86-12.54-3.74-13.4-10.28Z"/>
    <path class="cls-1" d="m234.51,153.22c-7.31.96-14.05-4.2-15.01-11.51-.96-7.31,4.2-14.05,11.51-15.01,7.31-.96,14.05,4.2,15.01,11.51.96,7.31-4.2,14.05-11.51,15.01Zm-3.12-23.68c-5.75.76-9.8,6.05-9.05,11.79.76,5.75,6.05,9.8,11.79,9.05,5.74-.76,9.8-6.05,9.05-11.79-.76-5.75-6.05-9.8-11.79-9.05Z"/>
  </g>
  <g>
    <path class="cls-1" d="m227.91,140.6c-.35-2.68,1.53-5.14,4.21-5.5,2.68-.35,5.14,1.53,5.5,4.21.35,2.68-1.53,5.14-4.21,5.5-2.68.35-5.14-1.53-5.5-4.21Z"/>
    <path class="cls-1" d="m233.59,146.24c-3.46.46-6.65-1.99-7.1-5.45-.46-3.46,1.99-6.65,5.45-7.1,3.46-.46,6.65,1.99,7.1,5.45.46,3.46-1.99,6.65-5.45,7.1Zm-1.28-9.71c-1.89.25-3.23,1.99-2.98,3.89.25,1.89,1.99,3.23,3.89,2.98,1.89-.25,3.23-1.99,2.98-3.89-.25-1.89-1.99-3.23-3.89-2.98Z"/>
  </g>
  <g>
    <rect class="cls-9" x="231.8" y="58.85" width="24.88" height="24.88" transform="translate(495.71 110.03) rotate(172.49)"/>
    <path class="cls-1" d="m258.39,83.41l-24.66,3.25c-.78.1-1.51-.45-1.61-1.23l-3.25-24.66c-.1-.79.45-1.51,1.23-1.61l24.66-3.25c.78-.1,1.51.45,1.61,1.23l3.25,24.66c.1.78-.45,1.51-1.23,1.61Zm-23.62.22l21.82-2.88-2.88-21.82-21.82,2.88,2.88,21.82Z"/>
  </g>
  <g>
    <path class="cls-6" d="m256.61,70.04c-2.22-16.94-44.25,3.37-47.26-19.56-2.43-18.48,22.74-16.39,35.16-19.93,12.42-3.54,25.49-11.35,25.49-11.35,0,0,.42,21.43-21.24,32.93-.28.15-.56.29-.84.44,0,0,21.67,4.64,33.24-1.4,0,0-1.57,17.91-23.59,26.19l-.96-7.31Z"/>
    <path class="cls-1" d="m257.76,78.76c-.32.04-.64-.02-.93-.19-.37-.23-.63-.61-.68-1.04l-.96-7.31h0c-.8-6.12-7.85-6.47-19.37-6.31-12.24.17-26.11.35-27.89-13.24-2.04-15.57,13.56-17.83,26.11-19.64,3.74-.54,7.27-1.05,10.08-1.85,12.09-3.45,25.02-11.13,25.15-11.21.44-.26.98-.27,1.43-.02.45.25.73.71.74,1.23,0,.21.16,20.6-19.29,32.66,6.67.99,20.26,2.28,28.35-1.95.47-.24,1.03-.21,1.46.08.44.29.68.8.63,1.32-.07.77-1.91,18.9-24.51,27.41-.1.04-.21.07-.32.08Zm.27-8.92l.72,5.48c14.86-6.23,19.24-16.91,20.5-21.78-12.16,4.49-30.78.58-31.63.4-.59-.13-1.04-.62-1.12-1.22-.08-.6.23-1.19.78-1.46.28-.14.55-.28.82-.42,16.5-8.76,19.71-23.26,20.33-29.11-4.33,2.41-14.04,7.47-23.52,10.18-2.99.85-6.62,1.38-10.46,1.93-14.84,2.15-25.23,4.59-23.67,16.43,1.45,11.07,13.43,10.91,25.01,10.75,10.35-.14,21.06-.29,22.25,8.81h0Z"/>
  </g>
  <g>
    <path class="cls-4" d="m89.99,160.55c2.44,18.48-22.73,16.4-35.15,19.95-12.41,3.55-25.49,11.37-25.49,11.37,0,0-.43-21.43,21.22-32.94.28-.15.56-.29.84-.44,0,0-21.68-4.63-33.24,1.42,0,0,1.56-17.91,23.57-26.21l46.4,12.95,1.83,13.89Z"/>
    <path class="cls-1" d="m29.54,193.29c-.3.04-.61-.02-.88-.17-.45-.25-.73-.71-.74-1.22,0-.21-.17-20.6,19.27-32.68-6.67-.98-20.26-2.26-28.35,1.97-.46.25-1.02.21-1.46-.08-.44-.29-.68-.8-.63-1.32.07-.77,1.9-18.91,24.49-27.43.29-.11.6-.12.89-.04l46.4,12.95c.55.15.96.62,1.04,1.19l1.83,13.89c2.05,15.57-13.55,17.84-26.09,19.66-3.74.54-7.27,1.06-10.08,1.86-12.08,3.46-25.01,11.14-25.14,11.22-.17.1-.36.17-.55.19Zm-2.22-37.48c11.19-1.48,23.7,1.14,24.39,1.28.59.13,1.04.61,1.12,1.22.08.6-.23,1.19-.77,1.46-.28.14-.55.28-.82.42-16.49,8.77-19.7,23.27-20.31,29.12,4.33-2.41,14.03-7.48,23.51-10.19,2.99-.86,6.62-1.38,10.46-1.94,14.84-2.16,25.23-4.6,23.66-16.45l-1.71-12.95-45.04-12.57c-15.86,6.15-20.44,17.29-21.73,22.29,2.24-.83,4.71-1.37,7.24-1.71Z"/>
  </g>
  <g>
    <path class="cls-12" d="m87.86,144.38l2.13,16.17c-3.02-22.93-45.04-2.59-47.27-19.53l-2.36-17.89,49.98-3.29-2.49,24.54Z"/>
    <path class="cls-1" d="m90.17,161.97c-.78.1-1.51-.45-1.61-1.23-1.46-11.07-13.43-10.9-25.01-10.73-10.35.15-21.06.3-22.26-8.79l-2.36-17.89c-.05-.39.06-.79.31-1.1.25-.31.62-.49,1.01-.52l49.98-3.29c.42-.03.83.13,1.13.43.29.3.44.72.39,1.14l-2.47,24.38,2.11,16c.1.78-.45,1.51-1.23,1.61Zm-48.2-37.51l2.16,16.37c.81,6.12,7.86,6.47,19.37,6.3,8.83-.12,18.52-.26,23.89,4.78l-.97-7.35c-.01-.11-.02-.22,0-.33l2.32-22.86-46.77,3.08Z"/>
  </g>
  <g>
    <path class="cls-13" d="m143.04,55.28c3.58-18.14,20.76-35.27,44.05-38.34,27.49-3.62,52.71,15.72,56.33,43.21,1.08,8.17.11,16.14-2.48,23.41-14.25,49.39-79.19,113.65-79.19,113.65,0,0-79.38-45.24-105.94-89.24-4.39-6.34-7.39-13.79-8.47-21.96-3.62-27.49,15.72-52.71,43.21-56.33,23.29-3.07,44.33,9.02,52.49,25.61Z"/>
    <path class="cls-1" d="m161.95,198.63c-.3.04-.62-.02-.9-.18-.8-.45-80.01-45.93-106.46-89.74-4.65-6.72-7.58-14.32-8.66-22.52-3.72-28.23,16.21-54.22,44.44-57.94,20.93-2.76,42.21,6.85,52.16,23.13,5.39-18.3,23.45-33.1,44.38-35.86,28.23-3.72,54.22,16.21,57.94,44.44,1.08,8.2.22,16.3-2.56,24.08-14.16,49.09-78.88,113.54-79.53,114.19-.23.23-.52.36-.82.4ZM90.74,31.09c-26.66,3.52-45.49,28.07-41.97,54.72,1.02,7.74,3.79,14.92,8.22,21.33,24.55,40.67,95.48,82.98,104.53,88.26,7.37-7.45,64.9-66.69,78.05-112.26,2.65-7.43,3.46-15.08,2.44-22.82-3.52-26.66-28.07-45.49-54.73-41.97-21.12,2.78-39.13,18.43-42.83,37.2-.12.6-.61,1.06-1.22,1.14-.61.08-1.2-.24-1.47-.79-8.44-17.17-29.89-27.61-51.01-24.82Z"/>
  </g>
  <g>
    <path class="cls-5" d="m180.38,108.59c-22.84-.85-45.78-1.64-68.64-1.53-11.28.06-22.57.43-33.67,2.55-2.39-3.26-4.55-6.53-6.4-9.79-3.66-5.64-6.18-12.25-7.14-19.48-2.1-15.91,10.59-30.7,28.34-33.04,30.72-4.05,53.23,31.25,53.23,31.25,0,0,12.59-39.93,43.31-43.98,17.75-2.34,33.84,8.66,35.94,24.56.95,7.23.23,14.27-1.84,20.67-2.57,9.9-7.28,20.45-13.03,30.85-10-1.1-20.05-1.69-30.1-2.06Z"/>
    <path class="cls-1" d="m210.67,112.07c-.11.01-.23.02-.34,0-8.85-.97-18.38-1.62-30-2.05-24.38-.9-46.37-1.64-68.58-1.53-10.76.05-22.24.4-33.41,2.53-.51.12-1.1-.11-1.42-.56-2.5-3.41-4.68-6.75-6.49-9.93-3.88-5.98-6.35-12.73-7.31-20-2.2-16.67,11.07-32.21,29.58-34.65,26.89-3.55,47.24,21.51,53,29.54,3.49-9.24,16.65-38.72,43.54-42.27,18.51-2.44,35.35,9.13,37.55,25.8.96,7.27.32,14.43-1.9,21.29-2.37,9.13-6.8,19.62-13.14,31.11-.22.4-.62.67-1.07.73Zm-126.05-4.96c9.17-1.21,18.39-1.44,27.11-1.49,22.26-.11,44.28.63,68.7,1.53h0c11.28.42,20.61,1.04,29.25,1.97,5.99-10.95,10.17-20.93,12.44-29.69,2.11-6.53,2.71-13.28,1.81-20.12-1.99-15.1-17.39-25.56-34.33-23.33-29.44,3.88-42.01,42.6-42.13,42.99-.17.53-.63.92-1.18.99-.55.07-1.1-.18-1.39-.65-.22-.35-22.39-34.48-51.83-30.6-16.94,2.23-29.1,16.33-27.11,31.43.9,6.84,3.23,13.2,6.92,18.89,1.66,2.92,3.61,5.93,5.82,9,1.97-.36,3.94-.67,5.92-.93Z"/>
  </g>
  <g>
    <path class="cls-10" d="m82.86,109.98c22.83-3.51,46.49-1.46,69.47-.97,19.17.41,38.44.7,57.52,2.78-19.58,34.92-50.42,67.79-50.42,67.79,0,0-54-33.47-80.57-68.9,1.33-.25,2.66-.49,4-.7Z"/>
    <path class="cls-1" d="m159.62,181c-.32.04-.65-.02-.94-.2-.54-.34-54.54-34.02-80.96-69.25-.3-.4-.37-.92-.19-1.38.18-.46.58-.8,1.07-.89,1.35-.25,2.69-.5,4.05-.7,18.01-2.76,36.69-2.1,54.75-1.45,4.92.18,10.01.36,14.97.47l3.91.08c17.64.37,35.89.76,53.74,2.7.48.05.9.34,1.12.77.22.43.21.94-.02,1.36-19.44,34.68-50.31,67.74-50.62,68.07-.23.25-.54.4-.86.44Zm-78.2-69.33c24.52,31.49,70.42,61.38,77.77,66.06,4.87-5.32,30.81-34.19,48.33-64.74-17.04-1.73-34.45-2.1-51.32-2.46l-3.91-.08c-4.98-.11-10.08-.29-15.01-.47-17.92-.64-36.45-1.31-54.21,1.42h0c-.55.08-1.1.18-1.65.27Zm1.44-1.69h.01s-.01,0-.01,0Z"/>
  </g>
  <g>
    <path class="cls-11" d="m146.7,83.02c32.98,1.74,111.84,1.53,109.92-12.99l4.74,35.96c-27.38,30.83-79.65,24.84-108.73,22.04-32.98-1.74-111.84-1.53-109.92,12.99l-4.74-35.96c27.38-30.83,79.65-24.84,108.73-22.04Z"/>
    <path class="cls-1" d="m212.27,130.56c-20.54,2.71-41.74.65-57.42-.87l-2.35-.23c-38.07-2-98.62-.52-107.47,9.06-.94,1.01-.95,1.81-.89,2.32.1.78-.45,1.51-1.23,1.61-.78.1-1.51-.45-1.61-1.23l-4.74-35.96c-.05-.41.07-.83.35-1.14,27.15-30.56,77.5-25.67,107.58-22.75l2.32.23c38.14,2.01,98.66.52,107.5-9.06.94-1.01.96-1.81.89-2.32-.1-.78.45-1.51,1.23-1.61.78-.1,1.51.45,1.61,1.23l4.74,35.96c.05.41-.07.83-.35,1.14-12.99,14.63-31.3,21.13-50.16,23.62Zm-143.64-2.03c27.09-3.57,67.02-2.83,84.08-1.93l2.42.23c29.38,2.86,78.44,7.62,104.73-21.31l-4.02-30.47c-13.05,11.67-84.72,10.69-109.21,9.4-.02,0-.04,0-.06,0l-2.35-.23c-29.38-2.85-78.44-7.62-104.73,21.31l4.02,30.47c3.96-3.54,13.33-5.92,25.13-7.47Z"/>
  </g>
  <g>
    <path class="cls-2" d="m117.65,88.76c2.89.11,5.73.27,8.49.45m42.81,2.45c2.63.03,5.37.06,8.18.06m34.74-.93c2.74-.17,5.44-.36,8.09-.58m3.77,28.58c-2.54.65-5.19,1.22-7.95,1.69m-34.62,1.78c-2.8-.11-5.55-.27-8.23-.45m-42.81-2.44c-2.72-.03-5.54-.05-8.44-.06m-34.74.96c-2.65.17-5.26.36-7.83.57m0,0-3.77-28.53c2.46-.64,5.02-1.19,7.69-1.67"/>
    <path class="cls-1" d="m215.96,121.91c-.76.1-1.47-.42-1.6-1.18-.14-.78.39-1.52,1.17-1.66,2.71-.47,5.35-1.03,7.84-1.67.78-.19,1.55.27,1.74,1.03.2.77-.27,1.55-1.03,1.74-2.56.66-5.28,1.23-8.06,1.72-.02,0-.04,0-.06,0Zm-34.62,1.78c-.08.01-.16.01-.25.01-2.65-.11-5.36-.25-8.27-.45-.79-.05-1.39-.74-1.33-1.53.05-.79.74-1.38,1.53-1.33,2.88.2,5.56.34,8.18.45.79.03,1.41.7,1.38,1.49-.03.71-.57,1.27-1.24,1.36Zm-51.03-2.89c-.07,0-.14.01-.21.01-2.71-.03-5.53-.05-8.42-.06-.79,0-1.43-.64-1.43-1.43,0-.79.65-1.43,1.43-1.43,2.9,0,5.73.02,8.46.06.79,0,1.42.66,1.41,1.45,0,.72-.55,1.31-1.24,1.4Zm-43.18.9s-.07,0-.1,0c-2.71.17-5.34.36-7.79.57-.79.07-1.48-.52-1.55-1.31-.07-.79.57-1.48,1.31-1.55,2.48-.21,5.12-.4,7.86-.57.79-.05,1.47.55,1.52,1.34.05.76-.5,1.41-1.24,1.51Zm133.01-30.07s-.05,0-.07,0c-2.59.22-5.32.41-8.12.58-.79.05-1.47-.55-1.52-1.34-.05-.79.58-1.45,1.34-1.52,2.78-.17,5.49-.37,8.06-.58.79-.07,1.48.52,1.55,1.31.06.77-.49,1.44-1.24,1.54Zm-42.83,1.51c-.06,0-.13.01-.19.01-2.81,0-5.55-.03-8.19-.06-.79-.01-1.43-.66-1.41-1.45,0-.79.67-1.42,1.45-1.41,2.63.03,5.36.05,8.16.06.79,0,1.43.64,1.43,1.44,0,.73-.54,1.33-1.24,1.42Zm-50.98-2.51c-.09.01-.19.02-.29,0-2.97-.2-5.74-.35-8.45-.45-.79-.03-1.41-.7-1.38-1.49.03-.79.71-1.4,1.49-1.38,2.74.1,5.53.25,8.53.46.79.05,1.39.74,1.33,1.53-.05.69-.58,1.24-1.24,1.33Zm-50.8,3.11c-.71.09-1.39-.35-1.57-1.06-.2-.77.26-1.55,1.03-1.75,2.48-.65,5.11-1.21,7.8-1.69.84-.14,1.52.38,1.66,1.16.14.78-.38,1.52-1.16,1.66-2.62.47-5.17,1.02-7.58,1.65-.06.01-.12.03-.17.03Z"/>
  </g>
  <path class="cls-1" d="m151.73,121.18c-9.25,1.22-17.7-4.82-18.84-13.46-1.14-8.64,5.46-16.66,14.7-17.88,9.25-1.22,17.7,4.82,18.84,13.46,1.14,8.64-5.46,16.66-14.7,17.88Zm-3.76-28.5c-7.68,1.01-13.17,7.59-12.24,14.66.93,7.07,7.94,12,15.62,10.99,7.68-1.01,13.17-7.59,12.24-14.66-.93-7.07-7.94-12-15.62-10.99Z"/>
  <path class="cls-1" d="m87.13,121.71c-.78.1-1.51-.45-1.61-1.23l-3.91-29.63c-.07-.55.18-1.09.64-1.39.46-.3,1.06-.31,1.53-.02l18.96,11.57c.68.41.89,1.29.48,1.97-.41.68-1.29.89-1.97.48l-16.4-10.01,3.52,26.65c.1.78-.45,1.51-1.23,1.61Z"/>
  <path class="cls-1" d="m121.87,120.74c-.79.1-1.51-.45-1.61-1.23l-3.68-27.93-13.65,11.74c-.6.52-1.5.45-2.02-.15-.52-.6-.45-1.51.15-2.02l15.66-13.47c.4-.34.96-.44,1.45-.25.49.19.84.63.91,1.15l4.03,30.56c.1.78-.45,1.51-1.23,1.61Z"/>
  <g>
    <line class="cls-2" x1="177.13" y1="91.73" x2="196.3" y2="104.91"/>
    <path class="cls-1" d="m196.48,106.33c-.34.04-.7-.03-1-.24l-19.17-13.18c-.65-.45-.82-1.34-.37-1.99.45-.65,1.34-.82,1.99-.37l19.17,13.18c.65.45.82,1.34.37,1.99-.24.35-.61.56-.99.61Z"/>
  </g>
  <g>
    <line class="cls-2" x1="181.15" y1="122.27" x2="177.13" y2="91.73"/>
    <path class="cls-1" d="m181.34,123.69c-.79.1-1.51-.45-1.61-1.23l-4.03-30.54c-.1-.78.45-1.51,1.23-1.61.78-.1,1.5.45,1.61,1.23l4.03,30.54c.1.79-.45,1.51-1.23,1.61Z"/>
  </g>
  <path class="cls-1" d="m215.97,121.91c-.79.1-1.51-.45-1.61-1.23l-3.56-26.98-13.54,12.28c-.58.53-1.49.49-2.02-.1-.53-.59-.49-1.49.1-2.02l15.57-14.11c.4-.36.96-.47,1.46-.28.5.18.86.63.93,1.16l3.91,29.69c.1.79-.45,1.51-1.23,1.61Z"/>
  <path class="cls-1" d="m151.08,111.27c-4.47.59-8.59-2.57-9.18-7.04-.1-.78.45-1.51,1.23-1.61.78-.1,1.51.45,1.61,1.23.38,2.9,3.06,4.95,5.96,4.57.78-.1,1.51.45,1.61,1.23.1.78-.45,1.51-1.23,1.61Z"/>
  <path class="cls-1" d="m151.08,111.27c-.78.1-1.51-.45-1.61-1.23-.1-.78.45-1.51,1.23-1.61,4.36-.58,7.44-4.59,6.87-8.96-.58-4.36-4.59-7.45-8.96-6.87-.78.1-1.51-.45-1.61-1.23-.1-.79.45-1.51,1.23-1.61,5.93-.78,11.39,3.41,12.17,9.34.78,5.93-3.41,11.39-9.34,12.17Z"/>
  <path class="cls-1" d="m141.48,65.03c-.2-1.55.88-2.97,2.43-3.17,1.55-.2,2.96.88,3.17,2.43.2,1.55-.88,2.97-2.43,3.17-1.55.2-2.97-.88-3.17-2.43Z"/>
  <path class="cls-1" d="m157.66,187.69c-.2-1.55.88-2.97,2.43-3.17,1.55-.2,2.97.88,3.17,2.43.2,1.55-.88,2.97-2.43,3.17-1.55.2-2.97-.88-3.17-2.43Z"/>
  <path class="cls-1" d="m173.77,31.88c-.2-1.55-1.62-2.63-3.17-2.43-1.55.2-2.63,1.62-2.43,3.17.2,1.55,1.62,2.63,3.17,2.43,1.55-.2,2.63-1.62,2.43-3.17Z"/>
  <path class="cls-1" d="m213.44,28.55c-.2-1.55-1.62-2.63-3.17-2.43-1.55.2-2.63,1.62-2.43,3.17.2,1.55,1.62,2.63,3.17,2.43,1.55-.2,2.63-1.62,2.43-3.17Z"/>
  <path class="cls-1" d="m236.96,62.2c-.2-1.55-1.62-2.63-3.17-2.43-1.55.2-2.63,1.62-2.43,3.17.2,1.55,1.62,2.63,3.17,2.43,1.55-.2,2.63-1.62,2.43-3.17Z"/>
  <path class="cls-1" d="m107.3,40.65c-.2-1.55.88-2.97,2.43-3.17,1.55-.2,2.97.88,3.17,2.43.2,1.55-.88,2.97-2.43,3.17-1.55.2-2.97-.88-3.17-2.43Z"/>
  <path class="cls-1" d="m68.13,47.71c-.2-1.55.88-2.96,2.43-3.17,1.55-.2,2.96.88,3.17,2.43.2,1.55-.88,2.97-2.43,3.17-1.55.2-2.97-.88-3.17-2.43Z"/>
  <path class="cls-1" d="m92.23,140.74c-.2-1.55.88-2.97,2.43-3.17,1.55-.2,2.97.88,3.17,2.43.2,1.55-.88,2.97-2.43,3.17-1.55.2-2.97-.88-3.17-2.43Z"/>
  <path class="cls-1" d="m54.13,86.31c-.2-1.55.88-2.96,2.43-3.17,1.55-.2,2.97.88,3.17,2.43.2,1.55-.88,2.97-2.43,3.17-1.55.2-2.96-.88-3.17-2.43Z"/>
  <path class="cls-1" d="m124.44,166.39c-.2-1.55.88-2.97,2.43-3.17,1.55-.2,2.97.88,3.17,2.43.2,1.55-.88,2.96-2.43,3.17-1.55.2-2.97-.88-3.17-2.43Z"/>
  <path class="cls-1" d="m189.81,157.77c-.2-1.55-1.62-2.63-3.17-2.43-1.55.2-2.63,1.62-2.43,3.17.2,1.55,1.62,2.63,3.17,2.43,1.55-.2,2.63-1.62,2.43-3.17Z"/>
</svg>